<svg width="310" height="286" viewBox="0 0 310 286" fill="none" xmlns="http://www.w3.org/2000/svg">
<path opacity="0.6" fill-rule="evenodd" clip-rule="evenodd" d="M87.2609 88.2627V175.652H0V176.652H87.2609V263.414H0V264.414H87.2609V351.677H88.2609V264.414H175.025V351.677H176.025V264.414H262.786V351.677H263.786V264.414H351.05V263.414H263.786V176.652H351.05V175.652H263.786V88.2627L351.05 88.2627V87.2627L263.786 87.2627V0H262.786V87.2627H176.025V0H175.025V87.2627H88.2609V0H87.2609V87.2627L0 87.2627V88.2627L87.2609 88.2627ZM262.786 263.414V176.652H176.025V263.414H262.786ZM175.025 263.414V176.652H88.2609V263.414H175.025ZM175.025 175.652H88.2609V88.2627H175.025V175.652ZM262.786 175.652H176.025V88.2627H262.786V175.652Z" fill="url(#paint0_radial_1938_28999)"/>
<defs>
<radialGradient id="paint0_radial_1938_28999" cx="0" cy="0" r="1" gradientUnits="userSpaceOnUse" gradientTransform="translate(137.9 153.075) rotate(-50.3322) scale(175.718 175.405)">
<stop stop-color="#1C2638"/>
<stop offset="0.245926" stop-color="#43669F"/>
<stop offset="0.661893" stop-color="#4D549F"/>
<stop offset="1" stop-color="#212F42"/>
</radialGradient>
</defs>
</svg>
