<svg width="352" height="286" viewBox="0 0 352 286" fill="none" xmlns="http://www.w3.org/2000/svg">
<path opacity="0.6" fill-rule="evenodd" clip-rule="evenodd" d="M87.2614 88.2626V175.652H0V176.652H87.2614V263.414H0V264.414H87.2614V351.677H88.2614V264.414H175.025V351.677H176.025V264.414H262.787V351.677H263.787V264.414H351.05V263.414H263.787V176.652H351.05V175.652H263.787V88.2626L351.05 88.2626V87.2626L263.787 87.2626V0H262.787V87.2626H176.025V0H175.025V87.2626H88.2614V0H87.2614V87.2626L0 87.2626V88.2626L87.2614 88.2626ZM262.787 263.414V176.652H176.025V263.414H262.787ZM175.025 263.414V176.652H88.2614V263.414H175.025ZM175.025 175.652H88.2614V88.2626H175.025V175.652ZM262.787 175.652H176.025V88.2626H262.787V175.652Z" fill="url(#paint0_radial_2170_28960)"/>
<defs>
<radialGradient id="paint0_radial_2170_28960" cx="0" cy="0" r="1" gradientUnits="userSpaceOnUse" gradientTransform="translate(137.9 153.075) rotate(-50.3322) scale(175.718 175.405)">
<stop stop-color="#1C2638"/>
<stop offset="0.245926" stop-color="#43669F"/>
<stop offset="0.661893" stop-color="#4D549F"/>
<stop offset="1" stop-color="#212F42"/>
</radialGradient>
</defs>
</svg>
