<svg width="249" height="277" viewBox="0 0 249 277" fill="none" xmlns="http://www.w3.org/2000/svg">
<path opacity="0.6" fill-rule="evenodd" clip-rule="evenodd" d="M68.6142 69.6645V138.272H2.77068e-08L0 139.272H68.6142V207.386H2.77068e-08L0 208.386H68.6142V277H69.6142V208.386H137.729V277H138.729V208.386H206.843V277H207.843V208.386H276.456V207.386H207.843V139.272H276.456V138.272H207.843V69.6645L276.456 69.6646V68.6646L207.843 68.6645V0.050293H206.843V68.6645H138.729V0.050293H137.729V68.6645H69.6142V0.050293H68.6142V68.6645L2.77068e-08 68.6645L0 69.6645L68.6142 69.6645ZM206.843 207.386V139.272H138.729V207.386H206.843ZM137.729 207.386V139.272H69.6142V207.386H137.729ZM137.729 138.272H69.6142V69.6645H137.729V138.272ZM206.843 138.272H138.729V69.6645H206.843V138.272Z" fill="url(#paint0_radial_1938_29378)"/>
<defs>
<radialGradient id="paint0_radial_1938_29378" cx="0" cy="0" r="1" gradientUnits="userSpaceOnUse" gradientTransform="translate(108.598 120.599) rotate(-50.3322) scale(138.38 138.133)">
<stop stop-color="#1C2638"/>
<stop offset="0.245926" stop-color="#43669F"/>
<stop offset="0.661893" stop-color="#4D549F"/>
<stop offset="1" stop-color="#212F42"/>
</radialGradient>
</defs>
</svg>
