<svg width="139" height="191" viewBox="0 0 139 191" fill="none" xmlns="http://www.w3.org/2000/svg">
<path opacity="0.6" fill-rule="evenodd" clip-rule="evenodd" d="M47.1139 48.3052V95.2588H2.77068e-08L0 96.2588H47.1139V142.873H2.77068e-08L0 143.873H47.1139V190.987H48.1139V143.873H94.7292V190.987H95.7292V143.873H142.342V190.987H143.342V143.873H190.456V142.873H143.342V96.2588H190.456V95.2588H143.342V48.3052L190.456 48.3052V47.3052L143.342 47.3052V0.190918H142.342V47.3052H95.7292V0.190918H94.7292V47.3052H48.1139V0.190918H47.1139V47.3052L2.77068e-08 47.3052L0 48.3052L47.1139 48.3052ZM142.342 142.873V96.2588H95.7292V142.873H142.342ZM94.7292 142.873V96.2588H48.1139V142.873H94.7292ZM94.7292 95.2588H48.1139V48.3052H94.7292V95.2588ZM142.342 95.2588H95.7292V48.3052H142.342V95.2588Z" fill="url(#paint0_radial_1954_27540)"/>
<defs>
<radialGradient id="paint0_radial_1954_27540" cx="0" cy="0" r="1" gradientUnits="userSpaceOnUse" gradientTransform="translate(74.8149 83.239) rotate(-50.3322) scale(95.3326 95.1627)">
<stop stop-color="#1C2638"/>
<stop offset="0.245926" stop-color="#43669F"/>
<stop offset="0.661893" stop-color="#4D549F"/>
<stop offset="1" stop-color="#212F42"/>
</radialGradient>
</defs>
</svg>
