<svg width="210" height="44" viewBox="0 0 210 44" fill="none" xmlns="http://www.w3.org/2000/svg">
<path d="M36 35C27.7157 35 21 28.2843 21 20C21 11.7157 27.7157 5 36 5C44.2843 5 51 11.7157 51 20C51 28.2843 44.2843 35 36 35Z" fill="#1A48EB"/>
<path d="M20.0819 35C12.3047 35 6 28.5081 6 20.5C6 12.4919 12.3047 6 20.0819 6C27.8591 6 17.6293 12.4919 17.6293 20.5C17.6293 28.5081 27.8591 35 20.0819 35Z" fill="#D9D9D9"/>
<path d="M71.1349 0V33.4741H65V0.521549L71.1349 0Z" fill="white"/>
<path d="M88.9037 34.0431C85.2576 34.0431 82.4041 32.9526 80.3433 30.7715C78.3142 28.5589 77.2996 25.6034 77.2996 21.9052C77.2996 18.2385 78.3617 15.3147 80.486 13.1336C82.6419 10.9526 85.5746 9.86207 89.2841 9.86207C93.1205 9.86207 96.0849 11 98.1774 13.2759C100.302 15.5201 101.364 18.4756 101.364 22.1422C101.364 25.8089 100.222 28.717 97.9396 30.8664C95.6569 32.9842 92.6449 34.0431 88.9037 34.0431ZM94.9911 22.1422C94.9911 19.9612 94.4996 18.2543 93.5168 17.0216C92.5656 15.7572 91.2023 15.125 89.4268 15.125C87.6196 15.125 86.2087 15.6782 85.1942 16.7845C84.1796 17.8908 83.6723 19.5819 83.6723 21.8578C83.6723 24.1336 84.1004 25.8563 84.9564 27.0259C85.8441 28.1954 87.1916 28.7802 88.9988 28.7802C90.7743 28.7802 92.2169 28.2586 93.3265 27.2155C94.4362 26.1408 94.9911 24.4497 94.9911 22.1422Z" fill="white"/>
<path d="M121.521 33C121.014 33.4109 120.284 33.7428 119.333 33.9957C118.414 34.2802 117.589 34.4224 116.86 34.4224C114.007 34.4224 111.756 33.7112 110.107 32.2888C108.49 30.8348 107.682 28.7802 107.682 26.125V15.2672H104.59V10.5259H107.682V5.07327L113.816 3.98276V10.5259H118.002L119.904 15.2672H113.816V25.0345C113.816 26.2356 114.102 27.2313 114.673 28.0216C115.243 28.7802 116.083 29.1595 117.193 29.1595C117.605 29.1595 118.017 29.1121 118.43 29.0172C118.842 28.9224 119.27 28.7644 119.714 28.5431L121.521 33Z" fill="white"/>
<path d="M140.167 33C139.659 33.4109 138.93 33.7428 137.979 33.9957C137.06 34.2802 136.235 34.4224 135.506 34.4224C132.653 34.4224 130.402 33.7112 128.753 32.2888C127.136 30.8348 126.327 28.7802 126.327 26.125V15.2672H123.236V10.5259H126.327V5.07327L132.462 3.98276V10.5259H136.647L138.55 15.2672H132.462V25.0345C132.462 26.2356 132.748 27.2313 133.318 28.0216C133.889 28.7802 134.729 29.1595 135.839 29.1595C136.251 29.1595 136.663 29.1121 137.076 29.0172C137.488 28.9224 137.916 28.7644 138.36 28.5431L140.167 33Z" fill="white"/>
<path d="M156.482 34.0431C152.488 34.0431 149.333 32.9526 147.018 30.7715C144.736 28.5905 143.594 25.6667 143.594 22C143.594 18.3333 144.625 15.3937 146.686 13.181C148.778 10.9684 151.616 9.86207 155.198 9.86207C158.813 9.86207 161.46 11.0632 163.14 13.4655C164.853 15.8362 165.709 18.6494 165.709 21.9052V23.8017H150.157C150.443 25.319 151.14 26.5359 152.25 27.4526C153.359 28.3376 154.818 28.7802 156.625 28.7802C157.671 28.7802 158.607 28.6537 159.431 28.4009C160.287 28.1164 161.27 27.7213 162.38 27.2155L164.187 31.6724C163.109 32.4943 161.793 33.0948 160.239 33.4741C158.718 33.8535 157.465 34.0431 156.482 34.0431ZM159.859 19.6767C159.542 18.1279 158.971 16.9899 158.147 16.2629C157.323 15.5043 156.292 15.125 155.056 15.125C153.787 15.125 152.725 15.5201 151.869 16.3103C151.013 17.069 150.458 18.1911 150.205 19.6767H159.859Z" fill="white"/>
<path d="M184.062 10.4784L185.299 15.4095C184.252 15.4095 183.032 15.7098 181.637 16.3103C180.273 16.9109 178.926 17.796 177.594 18.9655V33.4741H171.412V10.4784H174.646L176.691 13.8448C177.642 13.023 178.799 12.2644 180.162 11.569C181.526 10.842 182.826 10.4784 184.062 10.4784Z" fill="white"/>
<path d="M193.878 34.5647L194.972 31.8621L186.744 11.3319L193.117 10.4784L198.443 24.4181L203.485 10.4784H210L199.68 36.5086C198.951 38.3736 197.667 39.9698 195.828 41.2974C193.989 42.625 192.055 43.5259 190.026 44L187.838 38.9267C188.948 38.4526 190.121 37.8678 191.357 37.1724C192.626 36.5086 193.466 35.6394 193.878 34.5647Z" fill="white"/>
</svg>
