<svg width="331" height="266" viewBox="0 0 331 266" fill="none" xmlns="http://www.w3.org/2000/svg">
<path fill-rule="evenodd" clip-rule="evenodd" d="M133.227 233.095C209.664 277.226 304.235 266.594 354.274 256.184C374.434 251.989 385.892 232.144 379.444 212.587C363.44 164.048 325.362 76.8308 248.925 32.7C172.488 -11.431 77.9176 -0.798749 27.8786 9.61113C7.71761 13.8053 -3.73988 33.6503 2.70826 53.2075C18.7125 101.747 56.7901 188.964 133.227 233.095ZM150.717 202.803C189.325 225.093 238.691 211.865 260.982 173.257C283.272 134.65 270.044 85.2825 231.436 62.9921C192.829 40.702 143.462 53.9301 121.172 92.5375C98.881 131.146 112.109 180.513 150.717 202.803Z" fill="url(#paint0_linear_1920_25469)"/>
<defs>
<linearGradient id="paint0_linear_1920_25469" x1="39.6263" y1="11.2306" x2="421.747" y2="14.8938" gradientUnits="userSpaceOnUse">
<stop stop-color="#6065D3"/>
<stop offset="1" stop-color="#FFA539"/>
</linearGradient>
</defs>
</svg>
