<svg width="340" height="440" viewBox="0 0 340 440" fill="none" xmlns="http://www.w3.org/2000/svg">
<path opacity="0.9" fill-rule="evenodd" clip-rule="evenodd" d="M-48.2628 129.737V258.897H-177V259.897H-48.2628V388.134H-177V389.134H-48.2628V517.872H-47.2628V389.134H80.9729V517.872H81.9729V389.134H210.211V517.872H211.211V389.134H339.949V388.134H211.211V259.897H339.949V258.897H211.211V129.737H339.949V128.737H211.211V0H210.211V128.737H81.9729V0H80.9729V128.737H-47.2628V0H-48.2628V128.737H-177V129.737H-48.2628ZM210.211 388.134V259.897H81.9729V388.134H210.211ZM80.9729 388.134V259.897H-47.2628V388.134H80.9729ZM80.9729 258.897H-47.2628V129.737H80.9729V258.897ZM210.211 258.897H81.9729V129.737H210.211V258.897Z" fill="url(#paint0_radial_1920_25470)"/>
<defs>
<radialGradient id="paint0_radial_1920_25470" cx="0" cy="0" r="1" gradientUnits="userSpaceOnUse" gradientTransform="translate(99.9368 268.283) rotate(-89.6058) scale(251.557 251.109)">
<stop stop-color="#1C2638"/>
<stop offset="0.245926" stop-color="#43669F"/>
<stop offset="0.661893" stop-color="#3843BC"/>
<stop offset="1" stop-color="#1C2638"/>
</radialGradient>
</defs>
</svg>
