<svg width="25" height="24" viewBox="0 0 25 24" fill="none" xmlns="http://www.w3.org/2000/svg">
<path d="M12.822 9.34258C11.1284 9.34258 9.75072 10.6882 9.75072 12.3424C9.75072 13.9966 11.1284 15.3422 12.822 15.3422C14.5155 15.3422 15.8932 13.9966 15.8932 12.3424C15.8932 10.6882 14.5155 9.34258 12.822 9.34258ZM12.822 9.34258C11.1284 9.34258 9.75072 10.6882 9.75072 12.3424C9.75072 13.9966 11.1284 15.3422 12.822 15.3422C14.5155 15.3422 15.8932 13.9966 15.8932 12.3424C15.8932 10.6882 14.5155 9.34258 12.822 9.34258ZM18.1162 5H7.52773C6.31678 5 5.33398 5.95994 5.33398 7.14272V17.4849C5.33398 18.6677 6.31678 19.6276 7.52773 19.6276H18.1162C19.3271 19.6276 20.3099 18.6677 20.3099 17.4849V7.14272C20.3099 5.95994 19.3271 5 18.1162 5ZM12.822 16.1993C10.6458 16.1993 8.87322 14.4679 8.87322 12.3424C8.87322 10.2168 10.6458 8.48549 12.822 8.48549C14.9981 8.48549 16.7707 10.2168 16.7707 12.3424C16.7707 14.4679 14.9981 16.1993 12.822 16.1993ZM17.6482 8.48549C17.1656 8.48549 16.7707 8.0998 16.7707 7.6284C16.7707 7.157 17.1656 6.77131 17.6482 6.77131C18.1308 6.77131 18.5257 7.157 18.5257 7.6284C18.5257 8.0998 18.1308 8.48549 17.6482 8.48549ZM12.822 9.34258C11.1284 9.34258 9.75072 10.6882 9.75072 12.3424C9.75072 13.9966 11.1284 15.3422 12.822 15.3422C14.5155 15.3422 15.8932 13.9966 15.8932 12.3424C15.8932 10.6882 14.5155 9.34258 12.822 9.34258ZM12.822 9.34258C11.1284 9.34258 9.75072 10.6882 9.75072 12.3424C9.75072 13.9966 11.1284 15.3422 12.822 15.3422C14.5155 15.3422 15.8932 13.9966 15.8932 12.3424C15.8932 10.6882 14.5155 9.34258 12.822 9.34258ZM12.822 9.34258C11.1284 9.34258 9.75072 10.6882 9.75072 12.3424C9.75072 13.9966 11.1284 15.3422 12.822 15.3422C14.5155 15.3422 15.8932 13.9966 15.8932 12.3424C15.8932 10.6882 14.5155 9.34258 12.822 9.34258Z" fill="white"/>
</svg>
