<svg width="25" height="24" viewBox="0 0 25 24" fill="none" xmlns="http://www.w3.org/2000/svg">
<path fill-rule="evenodd" clip-rule="evenodd" d="M19.0282 9.23728C19.0345 9.37816 19.0376 9.52 19.0376 9.66184C19.0376 13.999 15.7357 19 9.69797 19C7.84367 19 6.11851 18.4563 4.66602 17.5249C4.92277 17.5556 5.18395 17.5711 5.44908 17.5711C6.98707 17.5711 8.40216 17.0466 9.52585 16.1662C8.08967 16.1401 6.87701 15.1908 6.45917 13.887C6.66004 13.9258 6.86554 13.9459 7.07676 13.9459C7.37632 13.9459 7.66642 13.9059 7.94145 13.8308C6.44011 13.5292 5.3083 12.203 5.3083 10.6128C5.3083 10.5988 5.3083 10.5852 5.30876 10.5718C5.75126 10.8173 6.25773 10.965 6.79539 10.9818C5.91473 10.3934 5.33514 9.38906 5.33514 8.25007C5.33514 7.64893 5.49736 7.08534 5.77983 6.60024C7.39839 8.58587 9.81797 9.89276 12.5458 10.0293C12.4898 9.78909 12.4609 9.53865 12.4609 9.28165C12.4609 7.46919 13.9306 6 15.7435 6C16.6875 6 17.5407 6.39816 18.1396 7.03626C18.8871 6.88883 19.5896 6.61573 20.2241 6.2396C19.9789 7.00617 19.4586 7.64921 18.7805 8.05515C19.4446 7.97629 20.0771 7.79971 20.666 7.53874C20.226 8.19696 19.6694 8.77483 19.0282 9.23728Z" fill="white"/>
</svg>
