<svg width="24" height="24" viewBox="0 0 24 24" fill="none" xmlns="http://www.w3.org/2000/svg">
<path d="M2.13155 21H21.8648C22.1732 21 22.4507 20.7636 22.4814 20.4683C22.4814 20.3205 22.8206 17.1296 20.6006 16.0956C20.1072 15.8592 19.4598 15.682 18.7815 15.475C17.2398 15.0023 15.3282 14.4408 14.9891 13.3478C15.0198 13.1705 15.0815 12.6386 15.5132 12.2546C16.3457 11.4568 17.2398 9.24092 17.2398 7.05465V7.02518C17.2398 6.90709 16.9931 3.83426 15.174 2.5342C14.9273 2.2976 13.9098 1.5 11.9982 1.5H11.9674C10.0866 1.5 9.06902 2.29778 8.82235 2.5045C6.97225 3.80455 6.75653 6.87719 6.75653 6.99548V7.02495C6.75653 9.21137 7.65058 11.4273 8.48313 12.2249C8.91479 12.6385 8.97651 13.1705 9.00727 13.318C8.66809 14.4112 6.7565 14.9725 5.21484 15.4453C4.53651 15.6522 3.88912 15.859 3.39573 16.0659C1.20646 17.1295 1.51491 20.3205 1.51491 20.4682C1.54566 20.7636 1.82311 20.9999 2.13152 20.9999L2.13155 21ZM3.95065 17.159C4.35155 16.9818 4.96815 16.7749 5.61554 16.5976C7.49636 16.0362 9.83963 15.3272 10.2405 13.525V13.4069C10.2405 13.3477 10.2405 12.2546 9.34647 11.3979C8.79158 10.8662 7.98975 8.9456 7.98975 7.05469C8.05148 6.28655 8.4214 4.24791 9.59313 3.45013C9.62389 3.42066 9.65486 3.42066 9.68562 3.39098C9.71637 3.36151 10.4564 2.71148 11.9673 2.68183H11.9981C13.5705 2.68183 14.2798 3.36133 14.3106 3.36133C14.3413 3.3908 14.3723 3.42048 14.4031 3.42048C15.5438 4.21826 15.9447 6.2864 16.0064 7.02504C16.0064 8.91595 15.2048 10.8363 14.6497 11.3682C13.7557 12.1955 13.7557 13.3183 13.7557 13.3772V13.4953C14.1873 15.2976 16.4998 16.0068 18.3807 16.568C19.0283 16.7749 19.6139 16.9521 20.0455 17.1294C21.063 17.6021 21.248 19.0203 21.248 19.7884L2.7481 19.7886C2.7481 19.0499 2.93307 17.6318 3.9506 17.159L3.95065 17.159Z" fill="white" stroke="white" stroke-width="0.6"/>
</svg>
