<svg width="283" height="175" viewBox="0 0 283 175" fill="none" xmlns="http://www.w3.org/2000/svg">
<path d="M149.626 44.1083L150.217 43.1721L152.089 44.3532L147.95 50.9158L146.915 50.2628L150.464 44.6364L149.626 44.1083ZM150.807 50.7675C151.697 50.6329 152.408 50.5106 152.938 50.4007C153.479 50.2886 153.97 50.1286 154.412 49.9206C154.853 49.7126 155.184 49.4345 155.403 49.0864C155.631 48.7263 155.722 48.3894 155.676 48.0755C155.637 47.7655 155.434 47.495 155.068 47.2641C154.714 47.0407 154.366 46.9806 154.024 47.0837C153.692 47.1846 153.401 47.4204 153.15 47.7909L152.16 47.1662C152.609 46.4934 153.143 46.1 153.76 45.986C154.387 45.8698 155.004 46.0028 155.61 46.3852C156.264 46.7978 156.661 47.2996 156.8 47.8907C156.944 48.4855 156.828 49.0829 156.449 49.6831C156.177 50.1152 155.802 50.4622 155.327 50.7243C154.861 50.9841 154.375 51.1765 153.868 51.3015C153.371 51.4243 152.758 51.5451 152.028 51.6639L151.396 51.7685L154.25 53.5686L153.71 54.4238L149.335 51.664L149.807 50.9168L150.807 50.7675Z" fill="white"/>
<path d="M149.626 44.1083L150.217 43.1721L152.089 44.3532L147.95 50.9158L146.915 50.2628L150.464 44.6364L149.626 44.1083ZM150.807 50.7675C151.697 50.6329 152.408 50.5106 152.938 50.4007C153.479 50.2886 153.97 50.1286 154.412 49.9206C154.853 49.7126 155.184 49.4345 155.403 49.0864C155.631 48.7263 155.722 48.3894 155.676 48.0755C155.637 47.7655 155.434 47.495 155.068 47.2641C154.714 47.0407 154.366 46.9806 154.024 47.0837C153.692 47.1846 153.401 47.4204 153.15 47.7909L152.16 47.1662C152.609 46.4934 153.143 46.1 153.76 45.986C154.387 45.8698 155.004 46.0028 155.61 46.3852C156.264 46.7978 156.661 47.2996 156.8 47.8907C156.944 48.4855 156.828 49.0829 156.449 49.6831C156.177 50.1152 155.802 50.4622 155.327 50.7243C154.861 50.9841 154.375 51.1765 153.868 51.3015C153.371 51.4243 152.758 51.5451 152.028 51.6639L151.396 51.7685L154.25 53.5686L153.71 54.4238L149.335 51.664L149.807 50.9168L150.807 50.7675Z" fill="url(#paint0_linear_3416_24152)"/>
<rect x="148.347" y="35.307" width="20.4623" height="20.8271" rx="10.2311" transform="rotate(32.2434 148.347 35.307)" stroke="url(#paint1_linear_3416_24152)" stroke-width="1.24595"/>
<path d="M57.8533 106.523L57.3584 105.753L57.5937 99.5041L58.8294 98.71L61.5279 102.91L62.3607 102.374L62.9303 103.261L62.0976 103.796L62.9721 105.157L61.9693 105.802L61.0947 104.44L57.8533 106.523ZM58.5388 100.364L58.4566 104.883L60.5698 103.525L58.5388 100.364ZM65.0994 95.6806L66.2983 103.02L65.2686 103.681L64.1656 96.4324L60.8525 98.5613L60.2944 97.6928L64.6103 94.9194L65.0994 95.6806Z" fill="white"/>
<path d="M57.8533 106.523L57.3584 105.753L57.5937 99.5041L58.8294 98.71L61.5279 102.91L62.3607 102.374L62.9303 103.261L62.0976 103.796L62.9721 105.157L61.9693 105.802L61.0947 104.44L57.8533 106.523ZM58.5388 100.364L58.4566 104.883L60.5698 103.525L58.5388 100.364ZM65.0994 95.6806L66.2983 103.02L65.2686 103.681L64.1656 96.4324L60.8525 98.5613L60.2944 97.6928L64.6103 94.9194L65.0994 95.6806Z" fill="url(#paint2_linear_3416_24152)"/>
<rect x="47.8609" y="98.9227" width="20.4623" height="20.8271" rx="10.2311" transform="rotate(-32.7239 47.8609 98.9227)" stroke="url(#paint3_linear_3416_24152)" stroke-width="1.24595"/>
<path d="M73.9618 33.2491C73.5333 32.5757 73.0245 32.1352 72.4353 31.9277C71.8462 31.7201 71.1367 31.7593 70.3071 32.0453C69.0466 32.4796 68.2729 33.2907 67.9861 34.4784C67.6937 35.6502 67.9165 37.3584 68.6544 39.6032C68.8273 38.7582 69.2466 38.0068 69.9124 37.3489C70.5782 36.6911 71.3738 36.2027 72.2993 35.8838C73.3523 35.5209 74.3575 35.4333 75.3147 35.6211C76.2824 35.7874 77.1381 36.2244 77.8817 36.932C78.6414 37.6342 79.2274 38.5836 79.6398 39.7802C80.0246 40.8971 80.1449 41.9713 80.0006 43.0028C79.8722 44.0288 79.4652 44.9456 78.7796 45.753C78.0884 46.5446 77.1366 47.1493 75.9239 47.5672C74.2805 48.1335 72.8644 48.2199 71.6756 47.8263C70.4973 47.4113 69.4885 46.6076 68.6491 45.4153C67.8258 44.2174 67.0732 42.6293 66.3914 40.6508C64.3789 34.8111 65.431 31.182 69.5475 29.7634C71.143 29.2135 72.544 29.2127 73.7503 29.7609C74.9727 30.3035 75.8808 31.1776 76.4747 32.3831L73.9618 33.2491ZM72.4927 38.3875C71.5194 38.7229 70.7915 39.304 70.3088 40.1308C69.8367 40.9362 69.7903 41.8893 70.1697 42.9902C70.5491 44.0911 71.1626 44.8615 72.0103 45.3012C72.8685 45.7195 73.864 45.7334 74.9968 45.343C76.002 44.9966 76.6846 44.4133 77.0445 43.5931C77.4204 42.7674 77.4297 41.836 77.0723 40.7989C76.6984 39.7139 76.1143 38.9513 75.3199 38.511C74.536 38.0493 73.5936 38.0081 72.4927 38.3875ZM82.9655 41.0707L82.2562 39.0124L86.3223 24.7054L89.6251 23.5672L93.4933 34.7918L95.7191 34.0248L96.5356 36.3942L94.3098 37.1612L95.5635 40.799L92.883 41.7228L91.6293 38.085L82.9655 41.0707ZM88.021 27.2259L85.2842 37.6208L90.9325 35.6743L88.021 27.2259Z" fill="white"/>
<path d="M73.9618 33.2491C73.5333 32.5757 73.0245 32.1352 72.4353 31.9277C71.8462 31.7201 71.1367 31.7593 70.3071 32.0453C69.0466 32.4796 68.2729 33.2907 67.9861 34.4784C67.6937 35.6502 67.9165 37.3584 68.6544 39.6032C68.8273 38.7582 69.2466 38.0068 69.9124 37.3489C70.5782 36.6911 71.3738 36.2027 72.2993 35.8838C73.3523 35.5209 74.3575 35.4333 75.3147 35.6211C76.2824 35.7874 77.1381 36.2244 77.8817 36.932C78.6414 37.6342 79.2274 38.5836 79.6398 39.7802C80.0246 40.8971 80.1449 41.9713 80.0006 43.0028C79.8722 44.0288 79.4652 44.9456 78.7796 45.753C78.0884 46.5446 77.1366 47.1493 75.9239 47.5672C74.2805 48.1335 72.8644 48.2199 71.6756 47.8263C70.4973 47.4113 69.4885 46.6076 68.6491 45.4153C67.8258 44.2174 67.0732 42.6293 66.3914 40.6508C64.3789 34.8111 65.431 31.182 69.5475 29.7634C71.143 29.2135 72.544 29.2127 73.7503 29.7609C74.9727 30.3035 75.8808 31.1776 76.4747 32.3831L73.9618 33.2491ZM72.4927 38.3875C71.5194 38.7229 70.7915 39.304 70.3088 40.1308C69.8367 40.9362 69.7903 41.8893 70.1697 42.9902C70.5491 44.0911 71.1626 44.8615 72.0103 45.3012C72.8685 45.7195 73.864 45.7334 74.9968 45.343C76.002 44.9966 76.6846 44.4133 77.0445 43.5931C77.4204 42.7674 77.4297 41.836 77.0723 40.7989C76.6984 39.7139 76.1143 38.9513 75.3199 38.511C74.536 38.0493 73.5936 38.0081 72.4927 38.3875ZM82.9655 41.0707L82.2562 39.0124L86.3223 24.7054L89.6251 23.5672L93.4933 34.7918L95.7191 34.0248L96.5356 36.3942L94.3098 37.1612L95.5635 40.799L92.883 41.7228L91.6293 38.085L82.9655 41.0707ZM88.021 27.2259L85.2842 37.6208L90.9325 35.6743L88.021 27.2259Z" fill="url(#paint4_linear_3416_24152)"/>
<rect x="49.1805" y="21.067" width="48.6673" height="49.535" rx="24.3336" transform="rotate(-19.0149 49.1805 21.067)" stroke="url(#paint5_linear_3416_24152)" stroke-width="2.96336"/>
<path d="M256.024 96.328C255.097 96.3596 254.356 96.4 253.8 96.4491C253.233 96.4993 252.712 96.6045 252.235 96.7646C251.759 96.9248 251.387 97.1698 251.121 97.4998C250.846 97.8411 250.712 98.175 250.721 98.5015C250.725 98.8234 250.9 99.1244 251.247 99.4043C251.582 99.6751 251.931 99.7781 252.293 99.7133C252.645 99.6497 252.971 99.4433 253.272 99.0941L254.211 99.8513C253.67 100.486 253.078 100.825 252.433 100.868C251.777 100.912 251.162 100.702 250.588 100.239C249.968 99.7387 249.622 99.1779 249.55 98.5567C249.473 97.9308 249.663 97.3335 250.122 96.7646C250.453 96.355 250.877 96.0445 251.395 95.8332C251.903 95.6229 252.423 95.484 252.956 95.4166C253.479 95.3502 254.121 95.2997 254.882 95.2652L255.541 95.2336L252.836 93.0515L253.49 92.2408L257.637 95.5863L257.066 96.2945L256.024 96.328ZM248.53 96.9026L247.814 97.7901L246.039 96.3583L251.057 90.1376L252.038 90.9292L247.736 96.2624L248.53 96.9026Z" fill="white"/>
<path d="M256.024 96.328C255.097 96.3596 254.356 96.4 253.8 96.4491C253.233 96.4993 252.712 96.6045 252.235 96.7646C251.759 96.9248 251.387 97.1698 251.121 97.4998C250.846 97.8411 250.712 98.175 250.721 98.5015C250.725 98.8234 250.9 99.1244 251.247 99.4043C251.582 99.6751 251.931 99.7781 252.293 99.7133C252.645 99.6497 252.971 99.4433 253.272 99.0941L254.211 99.8513C253.67 100.486 253.078 100.825 252.433 100.868C251.777 100.912 251.162 100.702 250.588 100.239C249.968 99.7387 249.622 99.1779 249.55 98.5567C249.473 97.9308 249.663 97.3335 250.122 96.7646C250.453 96.355 250.877 96.0445 251.395 95.8332C251.903 95.6229 252.423 95.484 252.956 95.4166C253.479 95.3502 254.121 95.2997 254.882 95.2652L255.541 95.2336L252.836 93.0515L253.49 92.2408L257.637 95.5863L257.066 96.2945L256.024 96.328ZM248.53 96.9026L247.814 97.7901L246.039 96.3583L251.057 90.1376L252.038 90.9292L247.736 96.2624L248.53 96.9026Z" fill="url(#paint6_linear_3416_24152)"/>
<rect x="253.142" y="110.741" width="21.0777" height="21.4535" rx="10.5388" transform="rotate(-141.107 253.142 110.741)" stroke="url(#paint7_linear_3416_24152)" stroke-width="1.28342"/>
<path d="M214.606 132.325C213.566 131.606 212.875 130.87 212.532 130.118C212.189 129.356 212.314 128.545 212.908 127.686C213.503 126.826 214.215 126.425 215.045 126.484C215.874 126.533 216.808 126.916 217.848 127.636C218.9 128.363 219.601 129.11 219.951 129.876C220.299 130.632 220.176 131.44 219.581 132.3C218.987 133.159 218.273 133.563 217.438 133.51C216.602 133.447 215.658 133.052 214.606 132.325ZM217.15 128.646C216.663 128.309 216.228 128.057 215.846 127.891C215.467 127.718 215.106 127.655 214.763 127.702C214.414 127.745 214.108 127.955 213.846 128.334C213.584 128.713 213.495 129.073 213.578 129.415C213.656 129.753 213.84 130.072 214.131 130.37C214.426 130.663 214.817 130.978 215.304 131.315C215.809 131.664 216.254 131.927 216.638 132.104C217.022 132.281 217.386 132.346 217.729 132.299C218.077 132.246 218.382 132.03 218.644 131.651C218.905 131.272 218.998 130.914 218.92 130.576C218.847 130.232 218.66 129.912 218.359 129.615C218.058 129.318 217.655 128.995 217.15 128.646ZM221.073 126.365C221.415 126.512 221.733 126.541 222.026 126.451C222.32 126.36 222.583 126.147 222.815 125.81C223.111 125.383 223.158 124.954 222.959 124.523C222.759 124.092 222.254 123.596 221.442 123.035C221.547 123.32 221.565 123.635 221.496 123.978C221.426 124.312 221.284 124.632 221.072 124.938C220.802 125.329 220.479 125.63 220.102 125.84C219.72 126.047 219.308 126.135 218.866 126.105C218.423 126.065 217.976 125.889 217.525 125.578C216.863 125.12 216.47 124.564 216.346 123.909C216.219 123.244 216.391 122.572 216.86 121.893C217.426 121.075 218.1 120.684 218.884 120.72C219.666 120.745 220.62 121.146 221.744 121.924C222.519 122.46 223.108 122.965 223.51 123.438C223.915 123.905 224.134 124.385 224.166 124.878C224.199 125.371 224.019 125.901 223.629 126.466C223.184 127.109 222.673 127.489 222.095 127.604C221.517 127.72 220.958 127.623 220.418 127.311L221.073 126.365ZM220.331 124.159C220.581 123.799 220.665 123.439 220.584 123.081C220.501 122.713 220.273 122.399 219.9 122.142C219.485 121.855 219.087 121.744 218.705 121.808C218.321 121.863 217.998 122.079 217.736 122.458C217.474 122.837 217.386 123.22 217.473 123.609C217.558 123.988 217.793 124.31 218.177 124.576C218.544 124.83 218.92 124.934 219.306 124.89C219.69 124.836 220.032 124.592 220.331 124.159Z" fill="white"/>
<path d="M214.606 132.325C213.566 131.606 212.875 130.87 212.532 130.118C212.189 129.356 212.314 128.545 212.908 127.686C213.503 126.826 214.215 126.425 215.045 126.484C215.874 126.533 216.808 126.916 217.848 127.636C218.9 128.363 219.601 129.11 219.951 129.876C220.299 130.632 220.176 131.44 219.581 132.3C218.987 133.159 218.273 133.563 217.438 133.51C216.602 133.447 215.658 133.052 214.606 132.325ZM217.15 128.646C216.663 128.309 216.228 128.057 215.846 127.891C215.467 127.718 215.106 127.655 214.763 127.702C214.414 127.745 214.108 127.955 213.846 128.334C213.584 128.713 213.495 129.073 213.578 129.415C213.656 129.753 213.84 130.072 214.131 130.37C214.426 130.663 214.817 130.978 215.304 131.315C215.809 131.664 216.254 131.927 216.638 132.104C217.022 132.281 217.386 132.346 217.729 132.299C218.077 132.246 218.382 132.03 218.644 131.651C218.905 131.272 218.998 130.914 218.92 130.576C218.847 130.232 218.66 129.912 218.359 129.615C218.058 129.318 217.655 128.995 217.15 128.646ZM221.073 126.365C221.415 126.512 221.733 126.541 222.026 126.451C222.32 126.36 222.583 126.147 222.815 125.81C223.111 125.383 223.158 124.954 222.959 124.523C222.759 124.092 222.254 123.596 221.442 123.035C221.547 123.32 221.565 123.635 221.496 123.978C221.426 124.312 221.284 124.632 221.072 124.938C220.802 125.329 220.479 125.63 220.102 125.84C219.72 126.047 219.308 126.135 218.866 126.105C218.423 126.065 217.976 125.889 217.525 125.578C216.863 125.12 216.47 124.564 216.346 123.909C216.219 123.244 216.391 122.572 216.86 121.893C217.426 121.075 218.1 120.684 218.884 120.72C219.666 120.745 220.62 121.146 221.744 121.924C222.519 122.46 223.108 122.965 223.51 123.438C223.915 123.905 224.134 124.385 224.166 124.878C224.199 125.371 224.019 125.901 223.629 126.466C223.184 127.109 222.673 127.489 222.095 127.604C221.517 127.72 220.958 127.623 220.418 127.311L221.073 126.365ZM220.331 124.159C220.581 123.799 220.665 123.439 220.584 123.081C220.501 122.713 220.273 122.399 219.9 122.142C219.485 121.855 219.087 121.744 218.705 121.808C218.321 121.863 217.998 122.079 217.736 122.458C217.474 122.837 217.386 123.22 217.473 123.609C217.558 123.988 217.793 124.31 218.177 124.576C218.544 124.83 218.92 124.934 219.306 124.89C219.69 124.836 220.032 124.592 220.331 124.159Z" fill="url(#paint8_linear_3416_24152)"/>
<rect x="203.475" y="129.74" width="21.0777" height="21.4535" rx="10.5388" transform="rotate(-55.3393 203.475 129.74)" stroke="url(#paint9_linear_3416_24152)" stroke-width="1.28342"/>
<g opacity="0.7">
<path d="M182.272 25.8L181.961 28.3842L183.496 28.569C183.365 28.4437 183.264 28.2697 183.191 28.0471C183.12 27.8193 183.098 27.5846 183.127 27.3429C183.179 26.9109 183.314 26.5724 183.531 26.3272C183.749 26.0769 184.006 25.9123 184.303 25.8332C184.6 25.7489 184.905 25.7257 185.219 25.7635C185.6 25.8093 185.93 25.9247 186.21 26.1097C186.486 26.289 186.691 26.5354 186.826 26.849C186.961 27.1574 187.003 27.5225 186.952 27.9442C186.885 28.5048 186.692 28.938 186.373 29.244C186.055 29.55 185.662 29.7089 185.197 29.7206L185.3 28.8644C185.548 28.8369 185.756 28.7341 185.924 28.556C186.086 28.3773 186.185 28.1414 186.22 27.8483C186.264 27.4831 186.186 27.1973 185.987 26.9906C185.788 26.7789 185.506 26.651 185.141 26.6071C184.771 26.5625 184.477 26.621 184.259 26.7826C184.036 26.9436 183.903 27.2041 183.86 27.5641C183.829 27.8161 183.868 28.0373 183.976 28.2276C184.079 28.4122 184.233 28.556 184.44 28.6592L184.34 29.4923L181.092 29.1014L181.501 25.7072L182.272 25.8ZM186.111 25.0517L185.447 24.9718L182.041 21.9323L182.169 20.8677L185.787 21.3032L185.874 20.5858L186.637 20.6778L186.551 21.3952L187.724 21.5363L187.62 22.4003L186.447 22.2591L186.111 25.0517ZM182.965 21.8009L185.469 23.9492L185.688 22.1286L182.965 21.8009Z" fill="white"/>
<path d="M182.272 25.8L181.961 28.3842L183.496 28.569C183.365 28.4437 183.264 28.2697 183.191 28.0471C183.12 27.8193 183.098 27.5846 183.127 27.3429C183.179 26.9109 183.314 26.5724 183.531 26.3272C183.749 26.0769 184.006 25.9123 184.303 25.8332C184.6 25.7489 184.905 25.7257 185.219 25.7635C185.6 25.8093 185.93 25.9247 186.21 26.1097C186.486 26.289 186.691 26.5354 186.826 26.849C186.961 27.1574 187.003 27.5225 186.952 27.9442C186.885 28.5048 186.692 28.938 186.373 29.244C186.055 29.55 185.662 29.7089 185.197 29.7206L185.3 28.8644C185.548 28.8369 185.756 28.7341 185.924 28.556C186.086 28.3773 186.185 28.1414 186.22 27.8483C186.264 27.4831 186.186 27.1973 185.987 26.9906C185.788 26.7789 185.506 26.651 185.141 26.6071C184.771 26.5625 184.477 26.621 184.259 26.7826C184.036 26.9436 183.903 27.2041 183.86 27.5641C183.829 27.8161 183.868 28.0373 183.976 28.2276C184.079 28.4122 184.233 28.556 184.44 28.6592L184.34 29.4923L181.092 29.1014L181.501 25.7072L182.272 25.8ZM186.111 25.0517L185.447 24.9718L182.041 21.9323L182.169 20.8677L185.787 21.3032L185.874 20.5858L186.637 20.6778L186.551 21.3952L187.724 21.5363L187.62 22.4003L186.447 22.2591L186.111 25.0517ZM182.965 21.8009L185.469 23.9492L185.688 22.1286L182.965 21.8009Z" fill="url(#paint10_linear_3416_24152)"/>
<rect x="175.826" y="31.6619" width="14.9375" height="15.2038" rx="7.46874" transform="rotate(-83.1361 175.826 31.6619)" stroke="url(#paint11_linear_3416_24152)" stroke-width="0.909546"/>
</g>
<g filter="url(#filter0_f_3416_24152)">
<circle cx="88.4998" cy="33.6522" r="4.22249" fill="white"/>
</g>
<g opacity="0.4" filter="url(#filter1_f_3416_24152)">
<ellipse cx="136.245" cy="102.511" rx="10.3938" ry="10.069" fill="white"/>
</g>
<g filter="url(#filter2_f_3416_24152)">
<circle cx="224.496" cy="59.9615" r="6.49614" fill="white"/>
</g>
<path d="M209.584 55.096C211.219 54.8906 212.524 54.6997 213.499 54.5232C214.493 54.3431 215.398 54.073 216.215 53.7129C217.033 53.3528 217.65 52.8595 218.068 52.233C218.499 51.585 218.681 50.973 218.613 50.397C218.555 49.8282 218.197 49.3242 217.538 48.8851C216.901 48.4603 216.267 48.3344 215.637 48.5073C215.025 48.6765 214.482 49.0942 214.006 49.7602L212.224 48.5724C213.077 47.3627 214.071 46.6678 215.205 46.4877C216.357 46.304 217.478 46.5756 218.569 47.3027C219.746 48.0874 220.449 49.0233 220.676 50.1105C220.913 51.2049 220.672 52.2922 219.952 53.3723C219.434 54.1499 218.734 54.7674 217.852 55.2247C216.988 55.6784 216.09 56.0079 215.157 56.2132C214.243 56.4149 213.116 56.6076 211.777 56.7914L210.616 56.9535L215.752 60.3766L214.726 61.9157L206.852 56.6677L207.748 55.323L209.584 55.096ZM222.136 54.243C222.871 53.2817 223.776 52.7542 224.852 52.6605C225.94 52.574 227.034 52.8979 228.136 53.6322C228.892 54.1361 229.455 54.7067 229.826 55.3438C230.197 55.981 230.368 56.6254 230.339 57.277C230.311 57.9286 230.102 58.546 229.713 59.1293C229.267 59.7989 228.707 60.2526 228.034 60.4903C227.361 60.728 226.722 60.7622 226.117 60.5931L226.074 60.6579C226.581 61.2771 226.841 61.9646 226.852 62.7206C226.87 63.4658 226.612 64.2381 226.08 65.0374C225.655 65.6746 225.131 66.1445 224.508 66.4469C223.886 66.7494 223.191 66.8557 222.424 66.7658C221.664 66.665 220.885 66.3483 220.086 65.8156C218.919 65.0381 218.156 64.1004 217.796 63.0024C217.454 61.9008 217.63 60.7704 218.325 59.6111L220.107 60.7989C219.768 61.4002 219.677 62.0176 219.831 62.6512C219.994 63.274 220.415 63.8121 221.095 64.2657C221.754 64.7048 222.381 64.8649 222.975 64.7461C223.576 64.6164 224.067 64.2654 224.449 63.6929C224.953 62.9368 225.066 62.2402 224.789 61.603C224.529 60.9623 223.903 60.3107 222.909 59.6484L222.488 59.3677L223.503 57.8447L223.94 58.1363C224.823 58.7086 225.584 59.0055 226.225 59.0271C226.876 59.0558 227.404 58.7677 227.807 58.1629C228.152 57.6444 228.259 57.1224 228.125 56.5968C227.999 56.0604 227.628 55.5871 227.013 55.1767C226.408 54.7736 225.834 54.617 225.29 54.7071C224.754 54.7864 224.302 55.0312 223.935 55.4417L222.136 54.243Z" fill="white"/>
<path d="M209.584 55.096C211.219 54.8906 212.524 54.6997 213.499 54.5232C214.493 54.3431 215.398 54.073 216.215 53.7129C217.033 53.3528 217.65 52.8595 218.068 52.233C218.499 51.585 218.681 50.973 218.613 50.397C218.555 49.8282 218.197 49.3242 217.538 48.8851C216.901 48.4603 216.267 48.3344 215.637 48.5073C215.025 48.6765 214.482 49.0942 214.006 49.7602L212.224 48.5724C213.077 47.3627 214.071 46.6678 215.205 46.4877C216.357 46.304 217.478 46.5756 218.569 47.3027C219.746 48.0874 220.449 49.0233 220.676 50.1105C220.913 51.2049 220.672 52.2922 219.952 53.3723C219.434 54.1499 218.734 54.7674 217.852 55.2247C216.988 55.6784 216.09 56.0079 215.157 56.2132C214.243 56.4149 213.116 56.6076 211.777 56.7914L210.616 56.9535L215.752 60.3766L214.726 61.9157L206.852 56.6677L207.748 55.323L209.584 55.096ZM222.136 54.243C222.871 53.2817 223.776 52.7542 224.852 52.6605C225.94 52.574 227.034 52.8979 228.136 53.6322C228.892 54.1361 229.455 54.7067 229.826 55.3438C230.197 55.981 230.368 56.6254 230.339 57.277C230.311 57.9286 230.102 58.546 229.713 59.1293C229.267 59.7989 228.707 60.2526 228.034 60.4903C227.361 60.728 226.722 60.7622 226.117 60.5931L226.074 60.6579C226.581 61.2771 226.841 61.9646 226.852 62.7206C226.87 63.4658 226.612 64.2381 226.08 65.0374C225.655 65.6746 225.131 66.1445 224.508 66.4469C223.886 66.7494 223.191 66.8557 222.424 66.7658C221.664 66.665 220.885 66.3483 220.086 65.8156C218.919 65.0381 218.156 64.1004 217.796 63.0024C217.454 61.9008 217.63 60.7704 218.325 59.6111L220.107 60.7989C219.768 61.4002 219.677 62.0176 219.831 62.6512C219.994 63.274 220.415 63.8121 221.095 64.2657C221.754 64.7048 222.381 64.8649 222.975 64.7461C223.576 64.6164 224.067 64.2654 224.449 63.6929C224.953 62.9368 225.066 62.2402 224.789 61.603C224.529 60.9623 223.903 60.3107 222.909 59.6484L222.488 59.3677L223.503 57.8447L223.94 58.1363C224.823 58.7086 225.584 59.0055 226.225 59.0271C226.876 59.0558 227.404 58.7677 227.807 58.1629C228.152 57.6444 228.259 57.1224 228.125 56.5968C227.999 56.0604 227.628 55.5871 227.013 55.1767C226.408 54.7736 225.834 54.617 225.29 54.7071C224.754 54.7864 224.302 55.0312 223.935 55.4417L222.136 54.243Z" fill="url(#paint12_linear_3416_24152)"/>
<rect x="214" y="30.9607" width="37.4317" height="38.0991" rx="18.7159" transform="rotate(33.6839 214 30.9607)" stroke="url(#paint13_linear_3416_24152)" stroke-width="2.27922"/>
<path d="M126.514 118.182L127.274 115.92L140.37 106.211L143.999 107.43L139.856 119.766L142.302 120.588L141.427 123.192L138.981 122.37L137.638 126.368L134.692 125.379L136.035 121.381L126.514 118.182ZM140.16 109.536L130.834 116.736L137.041 118.821L140.16 109.536ZM149.17 119.09C147.653 117.566 147.224 115.821 147.884 113.858C148.202 112.911 148.73 112.122 149.469 111.492C150.207 110.862 151.126 110.478 152.226 110.34C153.332 110.185 154.569 110.337 155.937 110.796C157.287 111.25 158.356 111.872 159.144 112.664C159.955 113.444 160.465 114.308 160.673 115.256C160.882 116.204 160.827 117.152 160.509 118.098C160.179 119.08 159.633 119.863 158.871 120.446C158.133 121.018 157.284 121.367 156.324 121.493C157.2 122.197 157.786 123.067 158.082 124.103C158.384 125.122 158.346 126.192 157.969 127.314C157.586 128.454 156.958 129.365 156.085 130.047C155.212 130.73 154.179 131.134 152.985 131.26C151.791 131.386 150.537 131.228 149.222 130.786C147.907 130.344 146.812 129.713 145.936 128.892C145.078 128.077 144.507 127.134 144.223 126.063C143.939 124.992 143.988 123.886 144.371 122.746C144.754 121.607 145.373 120.722 146.228 120.092C147.084 119.462 148.064 119.128 149.17 119.09ZM157.518 117.504C157.848 116.522 157.794 115.665 157.357 114.932C156.92 114.2 156.167 113.654 155.097 113.295C154.045 112.942 153.124 112.925 152.334 113.245C151.543 113.565 150.98 114.224 150.644 115.224C150.35 116.101 150.424 116.926 150.867 117.699C151.333 118.46 152.066 119.009 153.065 119.345C154.065 119.68 154.983 119.677 155.82 119.333C156.658 118.99 157.224 118.38 157.518 117.504ZM152.305 121.607C151.148 121.218 150.104 121.189 149.173 121.52C148.266 121.84 147.633 122.535 147.273 123.604C146.937 124.604 147.014 125.537 147.504 126.404C147.999 127.253 148.851 127.881 150.061 128.287C151.254 128.688 152.298 128.687 153.194 128.286C154.107 127.89 154.729 127.201 155.059 126.22C155.412 125.167 155.327 124.231 154.802 123.411C154.295 122.597 153.463 121.995 152.305 121.607Z" fill="white"/>
<path d="M126.514 118.182L127.274 115.92L140.37 106.211L143.999 107.43L139.856 119.766L142.302 120.588L141.427 123.192L138.981 122.37L137.638 126.368L134.692 125.379L136.035 121.381L126.514 118.182ZM140.16 109.536L130.834 116.736L137.041 118.821L140.16 109.536ZM149.17 119.09C147.653 117.566 147.224 115.821 147.884 113.858C148.202 112.911 148.73 112.122 149.469 111.492C150.207 110.862 151.126 110.478 152.226 110.34C153.332 110.185 154.569 110.337 155.937 110.796C157.287 111.25 158.356 111.872 159.144 112.664C159.955 113.444 160.465 114.308 160.673 115.256C160.882 116.204 160.827 117.152 160.509 118.098C160.179 119.08 159.633 119.863 158.871 120.446C158.133 121.018 157.284 121.367 156.324 121.493C157.2 122.197 157.786 123.067 158.082 124.103C158.384 125.122 158.346 126.192 157.969 127.314C157.586 128.454 156.958 129.365 156.085 130.047C155.212 130.73 154.179 131.134 152.985 131.26C151.791 131.386 150.537 131.228 149.222 130.786C147.907 130.344 146.812 129.713 145.936 128.892C145.078 128.077 144.507 127.134 144.223 126.063C143.939 124.992 143.988 123.886 144.371 122.746C144.754 121.607 145.373 120.722 146.228 120.092C147.084 119.462 148.064 119.128 149.17 119.09ZM157.518 117.504C157.848 116.522 157.794 115.665 157.357 114.932C156.92 114.2 156.167 113.654 155.097 113.295C154.045 112.942 153.124 112.925 152.334 113.245C151.543 113.565 150.98 114.224 150.644 115.224C150.35 116.101 150.424 116.926 150.867 117.699C151.333 118.46 152.066 119.009 153.065 119.345C154.065 119.68 154.983 119.677 155.82 119.333C156.658 118.99 157.224 118.38 157.518 117.504ZM152.305 121.607C151.148 121.218 150.104 121.189 149.173 121.52C148.266 121.84 147.633 122.535 147.273 123.604C146.937 124.604 147.014 125.537 147.504 126.404C147.999 127.253 148.851 127.881 150.061 128.287C151.254 128.688 152.298 128.687 153.194 128.286C154.107 127.89 154.729 127.201 155.059 126.22C155.412 125.167 155.327 124.231 154.802 123.411C154.295 122.597 153.463 121.995 152.305 121.607Z" fill="url(#paint14_linear_3416_24152)"/>
<rect x="117.836" y="65.6774" width="82.9929" height="84.4532" rx="41.4964" transform="rotate(18.5677 117.836 65.6774)" stroke="white" stroke-opacity="0.2" stroke-width="3.89768"/>
<rect x="117.836" y="65.6774" width="82.9929" height="84.4532" rx="41.4964" transform="rotate(18.5677 117.836 65.6774)" stroke="url(#paint15_linear_3416_24152)" stroke-width="3.89768"/>
<defs>
<filter id="filter0_f_3416_24152" x="70.2316" y="15.384" width="36.5367" height="36.5362" filterUnits="userSpaceOnUse" color-interpolation-filters="sRGB">
<feFlood flood-opacity="0" result="BackgroundImageFix"/>
<feBlend mode="normal" in="SourceGraphic" in2="BackgroundImageFix" result="shape"/>
<feGaussianBlur stdDeviation="7.02285" result="effect1_foregroundBlur_3416_24152"/>
</filter>
<filter id="filter1_f_3416_24152" x="94.6701" y="61.2604" width="83.152" height="82.5011" filterUnits="userSpaceOnUse" color-interpolation-filters="sRGB">
<feFlood flood-opacity="0" result="BackgroundImageFix"/>
<feBlend mode="normal" in="SourceGraphic" in2="BackgroundImageFix" result="shape"/>
<feGaussianBlur stdDeviation="15.5907" result="effect1_foregroundBlur_3416_24152"/>
</filter>
<filter id="filter2_f_3416_24152" x="192.015" y="27.4808" width="64.9613" height="64.9613" filterUnits="userSpaceOnUse" color-interpolation-filters="sRGB">
<feFlood flood-opacity="0" result="BackgroundImageFix"/>
<feBlend mode="normal" in="SourceGraphic" in2="BackgroundImageFix" result="shape"/>
<feGaussianBlur stdDeviation="12.9923" result="effect1_foregroundBlur_3416_24152"/>
</filter>
<linearGradient id="paint0_linear_3416_24152" x1="143.258" y1="40.0794" x2="140.255" y2="58.0221" gradientUnits="userSpaceOnUse">
<stop stop-color="#FCA43D"/>
<stop offset="0.130208" stop-color="#FFB053"/>
<stop offset="0.21875" stop-color="#F39930"/>
<stop offset="0.473958" stop-color="#FDC584"/>
<stop offset="0.59375" stop-color="#FFCF97"/>
<stop offset="0.760417" stop-color="#FFB156"/>
<stop offset="0.942708" stop-color="#FFD6A6"/>
<stop offset="1" stop-color="#FFF4E8"/>
</linearGradient>
<linearGradient id="paint1_linear_3416_24152" x1="151.263" y1="39.7102" x2="166.81" y2="54.9028" gradientUnits="userSpaceOnUse">
<stop stop-color="#FCA43D"/>
<stop offset="0.130208" stop-color="#FFB053"/>
<stop offset="0.21875" stop-color="#F39930"/>
<stop offset="0.473958" stop-color="#FDC584"/>
<stop offset="0.59375" stop-color="#FFCF97"/>
<stop offset="0.760417" stop-color="#FFB156"/>
<stop offset="0.942708" stop-color="#FFD6A6"/>
<stop offset="1" stop-color="#FFF4E8"/>
</linearGradient>
<linearGradient id="paint2_linear_3416_24152" x1="50.0325" y1="105.553" x2="65.0191" y2="115.866" gradientUnits="userSpaceOnUse">
<stop stop-color="#FCA43D"/>
<stop offset="0.130208" stop-color="#FFB053"/>
<stop offset="0.21875" stop-color="#F39930"/>
<stop offset="0.473958" stop-color="#FDC584"/>
<stop offset="0.59375" stop-color="#FFCF97"/>
<stop offset="0.760417" stop-color="#FFB156"/>
<stop offset="0.942708" stop-color="#FFD6A6"/>
<stop offset="1" stop-color="#FFF4E8"/>
</linearGradient>
<linearGradient id="paint3_linear_3416_24152" x1="50.1111" y1="103.998" x2="65.6573" y2="119.19" gradientUnits="userSpaceOnUse">
<stop stop-color="#FCA43D"/>
<stop offset="0.130208" stop-color="#FFB053"/>
<stop offset="0.21875" stop-color="#F39930"/>
<stop offset="0.473958" stop-color="#FDC584"/>
<stop offset="0.59375" stop-color="#FFCF97"/>
<stop offset="0.760417" stop-color="#FFB156"/>
<stop offset="0.942708" stop-color="#FFD6A6"/>
<stop offset="1" stop-color="#FFF4E8"/>
</linearGradient>
<linearGradient id="paint4_linear_3416_24152" x1="50.5709" y1="37.9309" x2="77.9845" y2="69.5149" gradientUnits="userSpaceOnUse">
<stop stop-color="#FCA43D"/>
<stop offset="0.130208" stop-color="#FFB053"/>
<stop offset="0.21875" stop-color="#F39930"/>
<stop offset="0.473958" stop-color="#FDC584"/>
<stop offset="0.59375" stop-color="#FFCF97"/>
<stop offset="0.760417" stop-color="#FFB156"/>
<stop offset="0.942708" stop-color="#FFD6A6"/>
<stop offset="1" stop-color="#FFF4E8"/>
</linearGradient>
<linearGradient id="paint5_linear_3416_24152" x1="54.6962" y1="32.6651" x2="91.6712" y2="68.7991" gradientUnits="userSpaceOnUse">
<stop stop-color="#FCA43D"/>
<stop offset="0.130208" stop-color="#FFB053"/>
<stop offset="0.21875" stop-color="#F39930"/>
<stop offset="0.473958" stop-color="#FDC584"/>
<stop offset="0.59375" stop-color="#FFCF97"/>
<stop offset="0.760417" stop-color="#FFB156"/>
<stop offset="0.942708" stop-color="#FFD6A6"/>
<stop offset="1" stop-color="#FFF4E8"/>
</linearGradient>
<linearGradient id="paint6_linear_3416_24152" x1="258.988" y1="106.38" x2="264.253" y2="88.8838" gradientUnits="userSpaceOnUse">
<stop stop-color="#FCA43D"/>
<stop offset="0.130208" stop-color="#FFB053"/>
<stop offset="0.21875" stop-color="#F39930"/>
<stop offset="0.473958" stop-color="#FDC584"/>
<stop offset="0.59375" stop-color="#FFCF97"/>
<stop offset="0.760417" stop-color="#FFB156"/>
<stop offset="0.942708" stop-color="#FFD6A6"/>
<stop offset="1" stop-color="#FFF4E8"/>
</linearGradient>
<linearGradient id="paint7_linear_3416_24152" x1="256.443" y1="117.064" x2="272.457" y2="132.714" gradientUnits="userSpaceOnUse">
<stop stop-color="#FCA43D"/>
<stop offset="0.130208" stop-color="#FFB053"/>
<stop offset="0.21875" stop-color="#F39930"/>
<stop offset="0.473958" stop-color="#FDC584"/>
<stop offset="0.59375" stop-color="#FFCF97"/>
<stop offset="0.760417" stop-color="#FFB156"/>
<stop offset="0.942708" stop-color="#FFD6A6"/>
<stop offset="1" stop-color="#FFF4E8"/>
</linearGradient>
<linearGradient id="paint8_linear_3416_24152" x1="208.255" y1="135.247" x2="226.091" y2="139.207" gradientUnits="userSpaceOnUse">
<stop stop-color="#FCA43D"/>
<stop offset="0.130208" stop-color="#FFB053"/>
<stop offset="0.21875" stop-color="#F39930"/>
<stop offset="0.473958" stop-color="#FDC584"/>
<stop offset="0.59375" stop-color="#FFCF97"/>
<stop offset="0.760417" stop-color="#FFB156"/>
<stop offset="0.942708" stop-color="#FFD6A6"/>
<stop offset="1" stop-color="#FFF4E8"/>
</linearGradient>
<linearGradient id="paint9_linear_3416_24152" x1="205.787" y1="135.324" x2="221.8" y2="150.974" gradientUnits="userSpaceOnUse">
<stop stop-color="#FCA43D"/>
<stop offset="0.130208" stop-color="#FFB053"/>
<stop offset="0.21875" stop-color="#F39930"/>
<stop offset="0.473958" stop-color="#FDC584"/>
<stop offset="0.59375" stop-color="#FFCF97"/>
<stop offset="0.760417" stop-color="#FFB156"/>
<stop offset="0.942708" stop-color="#FFD6A6"/>
<stop offset="1" stop-color="#FFF4E8"/>
</linearGradient>
<linearGradient id="paint10_linear_3416_24152" x1="180.623" y1="33.5316" x2="193.189" y2="30.0616" gradientUnits="userSpaceOnUse">
<stop stop-color="#FCA43D"/>
<stop offset="0.130208" stop-color="#FFB053"/>
<stop offset="0.21875" stop-color="#F39930"/>
<stop offset="0.473958" stop-color="#FDC584"/>
<stop offset="0.59375" stop-color="#FFCF97"/>
<stop offset="0.760417" stop-color="#FFB156"/>
<stop offset="0.942708" stop-color="#FFD6A6"/>
<stop offset="1" stop-color="#FFF4E8"/>
</linearGradient>
<linearGradient id="paint11_linear_3416_24152" x1="177.591" y1="35.9007" x2="188.94" y2="46.9913" gradientUnits="userSpaceOnUse">
<stop stop-color="#FCA43D"/>
<stop offset="0.130208" stop-color="#FFB053"/>
<stop offset="0.21875" stop-color="#F39930"/>
<stop offset="0.473958" stop-color="#FDC584"/>
<stop offset="0.59375" stop-color="#FFCF97"/>
<stop offset="0.760417" stop-color="#FFB156"/>
<stop offset="0.942708" stop-color="#FFD6A6"/>
<stop offset="1" stop-color="#FFF4E8"/>
</linearGradient>
<linearGradient id="paint12_linear_3416_24152" x1="204.386" y1="39.5873" x2="197.925" y2="71.5418" gradientUnits="userSpaceOnUse">
<stop stop-color="#FCA43D"/>
<stop offset="0.130208" stop-color="#FFB053"/>
<stop offset="0.21875" stop-color="#F39930"/>
<stop offset="0.473958" stop-color="#FDC584"/>
<stop offset="0.59375" stop-color="#FFCF97"/>
<stop offset="0.760417" stop-color="#FFB156"/>
<stop offset="0.942708" stop-color="#FFD6A6"/>
<stop offset="1" stop-color="#FFF4E8"/>
</linearGradient>
<linearGradient id="paint13_linear_3416_24152" x1="219.375" y1="39.007" x2="247.813" y2="66.7989" gradientUnits="userSpaceOnUse">
<stop stop-color="#FCA43D"/>
<stop offset="0.130208" stop-color="#FFB053"/>
<stop offset="0.21875" stop-color="#F39930"/>
<stop offset="0.473958" stop-color="#FDC584"/>
<stop offset="0.59375" stop-color="#FFCF97"/>
<stop offset="0.760417" stop-color="#FFB156"/>
<stop offset="0.942708" stop-color="#FFD6A6"/>
<stop offset="1" stop-color="#FFF4E8"/>
</linearGradient>
<linearGradient id="paint14_linear_3416_24152" x1="117.1" y1="100.041" x2="120.285" y2="146.807" gradientUnits="userSpaceOnUse">
<stop stop-color="#FCA43D"/>
<stop offset="0.130208" stop-color="#FFB053"/>
<stop offset="0.21875" stop-color="#F39930"/>
<stop offset="0.473958" stop-color="#FDC584"/>
<stop offset="0.59375" stop-color="#FFCF97"/>
<stop offset="0.760417" stop-color="#FFB156"/>
<stop offset="0.942708" stop-color="#FFD6A6"/>
<stop offset="1" stop-color="#FFF4E8"/>
</linearGradient>
<linearGradient id="paint15_linear_3416_24152" x1="129.062" y1="84.2733" x2="191.288" y2="145.084" gradientUnits="userSpaceOnUse">
<stop stop-color="#FCA43D"/>
<stop offset="0.130208" stop-color="#FFB053"/>
<stop offset="0.21875" stop-color="#F39930"/>
<stop offset="0.473958" stop-color="#FDC584"/>
<stop offset="0.59375" stop-color="#FFCF97"/>
<stop offset="0.760417" stop-color="#FFB156"/>
<stop offset="0.942708" stop-color="#FFD6A6"/>
<stop offset="1" stop-color="#FFF4E8"/>
</linearGradient>
</defs>
</svg>
