<svg width="259" height="184" viewBox="0 0 259 184" fill="none" xmlns="http://www.w3.org/2000/svg">
<path d="M156.301 47.0242L156.919 46.0451L158.877 47.2803L154.547 54.1438L153.465 53.4608L157.177 47.5765L156.301 47.0242ZM157.536 53.9887C158.467 53.8478 159.21 53.7199 159.765 53.605C160.33 53.4878 160.844 53.3204 161.306 53.1029C161.768 52.8853 162.113 52.5945 162.343 52.2305C162.58 51.8539 162.676 51.5015 162.628 51.1733C162.587 50.849 162.375 50.5661 161.992 50.3246C161.622 50.091 161.258 50.0281 160.9 50.136C160.553 50.2415 160.248 50.4881 159.986 50.8756L158.951 50.2223C159.421 49.5186 159.979 49.1072 160.624 48.988C161.28 48.8664 161.925 49.0055 162.559 49.4054C163.243 49.837 163.658 50.3618 163.803 50.9799C163.955 51.602 163.832 52.2269 163.436 52.8545C163.151 53.3064 162.76 53.6694 162.263 53.9434C161.775 54.2152 161.267 54.4164 160.737 54.5471C160.217 54.6756 159.576 54.8019 158.813 54.9262L158.152 55.0355L161.136 56.9181L160.572 57.8125L155.997 54.9263L156.49 54.1448L157.536 53.9887Z" fill="white"/>
<path d="M156.301 47.0242L156.919 46.0451L158.877 47.2803L154.547 54.1438L153.465 53.4608L157.177 47.5765L156.301 47.0242ZM157.536 53.9887C158.467 53.8478 159.21 53.7199 159.765 53.605C160.33 53.4878 160.844 53.3204 161.306 53.1029C161.768 52.8853 162.113 52.5945 162.343 52.2305C162.58 51.8539 162.676 51.5015 162.628 51.1733C162.587 50.849 162.375 50.5661 161.992 50.3246C161.622 50.091 161.258 50.0281 160.9 50.136C160.553 50.2415 160.248 50.4881 159.986 50.8756L158.951 50.2223C159.421 49.5186 159.979 49.1072 160.624 48.988C161.28 48.8664 161.925 49.0055 162.559 49.4054C163.243 49.837 163.658 50.3618 163.803 50.9799C163.955 51.602 163.832 52.2269 163.436 52.8545C163.151 53.3064 162.76 53.6694 162.263 53.9434C161.775 54.2152 161.267 54.4164 160.737 54.5471C160.217 54.6756 159.576 54.8019 158.813 54.9262L158.152 55.0355L161.136 56.9181L160.572 57.8125L155.997 54.9263L156.49 54.1448L157.536 53.9887Z" fill="url(#paint0_linear_3416_24413)"/>
<rect x="155.157" y="37.5129" width="21.4004" height="21.7819" rx="10.7002" transform="rotate(32.2434 155.157 37.5129)" stroke="url(#paint1_linear_3416_24413)" stroke-width="1.30307"/>
<path d="M77.2259 34.9714C76.7779 34.2671 76.2457 33.8064 75.6295 33.5894C75.0134 33.3723 74.2714 33.4133 73.4037 33.7124C72.0854 34.1666 71.2763 35.0149 70.9763 36.2571C70.6705 37.4825 70.9035 39.2691 71.6752 41.6168C71.8561 40.7331 72.2946 39.9472 72.991 39.2592C73.6873 38.5711 74.5194 38.0604 75.4872 37.7268C76.5886 37.3473 77.6398 37.2557 78.6409 37.4521C79.6529 37.6261 80.5478 38.0831 81.3256 38.8232C82.1201 39.5575 82.7329 40.5504 83.1642 41.8019C83.5668 42.97 83.6926 44.0934 83.5416 45.1722C83.4074 46.2453 82.9817 47.2041 82.2646 48.0486C81.5418 48.8764 80.5463 49.5088 79.2781 49.9459C77.5593 50.5382 76.0783 50.6285 74.835 50.2169C73.6026 49.7828 72.5475 48.9423 71.6698 47.6953C70.8087 46.4426 70.0216 44.7816 69.3085 42.7124C67.2038 36.605 68.304 32.8095 72.6093 31.3258C74.2779 30.7508 75.7431 30.7499 77.0048 31.3232C78.2832 31.8908 79.233 32.8049 79.8541 34.0657L77.2259 34.9714ZM75.6895 40.3454C74.6716 40.6962 73.9103 41.3039 73.4056 42.1686C72.9117 43.0109 72.8632 44.0077 73.26 45.1591C73.6568 46.3105 74.2985 47.1161 75.185 47.576C76.0825 48.0135 77.1237 48.028 78.3084 47.6198C79.3597 47.2575 80.0736 46.6474 80.45 45.7896C80.8432 44.926 80.8528 43.9519 80.4791 42.8673C80.088 41.7326 79.4771 40.935 78.6464 40.4745C77.8266 39.9917 76.8409 39.9486 75.6895 40.3454ZM86.6425 43.1515L85.9007 40.9989L90.1532 26.036L93.6074 24.8456L97.6529 36.5848L99.9807 35.7826L100.835 38.2606L98.5069 39.0628L99.818 42.8675L97.0146 43.8336L95.7035 40.0289L86.6425 43.1515ZM91.9297 28.6721L89.0675 39.5435L94.9747 37.5078L91.9297 28.6721Z" fill="white"/>
<path d="M77.2259 34.9714C76.7779 34.2671 76.2457 33.8064 75.6295 33.5894C75.0134 33.3723 74.2714 33.4133 73.4037 33.7124C72.0854 34.1666 71.2763 35.0149 70.9763 36.2571C70.6705 37.4825 70.9035 39.2691 71.6752 41.6168C71.8561 40.7331 72.2946 39.9472 72.991 39.2592C73.6873 38.5711 74.5194 38.0604 75.4872 37.7268C76.5886 37.3473 77.6398 37.2557 78.6409 37.4521C79.6529 37.6261 80.5478 38.0831 81.3256 38.8232C82.1201 39.5575 82.7329 40.5504 83.1642 41.8019C83.5668 42.97 83.6926 44.0934 83.5416 45.1722C83.4074 46.2453 82.9817 47.2041 82.2646 48.0486C81.5418 48.8764 80.5463 49.5088 79.2781 49.9459C77.5593 50.5382 76.0783 50.6285 74.835 50.2169C73.6026 49.7828 72.5475 48.9423 71.6698 47.6953C70.8087 46.4426 70.0216 44.7816 69.3085 42.7124C67.2038 36.605 68.304 32.8095 72.6093 31.3258C74.2779 30.7508 75.7431 30.7499 77.0048 31.3232C78.2832 31.8908 79.233 32.8049 79.8541 34.0657L77.2259 34.9714ZM75.6895 40.3454C74.6716 40.6962 73.9103 41.3039 73.4056 42.1686C72.9117 43.0109 72.8632 44.0077 73.26 45.1591C73.6568 46.3105 74.2985 47.1161 75.185 47.576C76.0825 48.0135 77.1237 48.028 78.3084 47.6198C79.3597 47.2575 80.0736 46.6474 80.45 45.7896C80.8432 44.926 80.8528 43.9519 80.4791 42.8673C80.088 41.7326 79.4771 40.935 78.6464 40.4745C77.8266 39.9917 76.8409 39.9486 75.6895 40.3454ZM86.6425 43.1515L85.9007 40.9989L90.1532 26.036L93.6074 24.8456L97.6529 36.5848L99.9807 35.7826L100.835 38.2606L98.5069 39.0628L99.818 42.8675L97.0146 43.8336L95.7035 40.0289L86.6425 43.1515ZM91.9297 28.6721L89.0675 39.5435L94.9747 37.5078L91.9297 28.6721Z" fill="url(#paint2_linear_3416_24413)"/>
<rect x="51.4426" y="22.6208" width="50.8984" height="51.806" rx="25.4492" transform="rotate(-19.0149 51.4426 22.6208)" stroke="url(#paint3_linear_3416_24413)" stroke-width="3.09922"/>
<path d="M223.886 138.591C222.798 137.839 222.075 137.069 221.717 136.283C221.358 135.486 221.489 134.638 222.11 133.739C222.732 132.84 223.477 132.421 224.345 132.482C225.212 132.533 226.189 132.934 227.277 133.686C228.377 134.447 229.11 135.228 229.476 136.03C229.84 136.82 229.711 137.665 229.09 138.564C228.468 139.463 227.721 139.885 226.848 139.83C225.973 139.765 224.986 139.351 223.886 138.591ZM226.546 134.743C226.037 134.39 225.582 134.127 225.182 133.953C224.787 133.772 224.409 133.707 224.05 133.756C223.685 133.8 223.365 134.021 223.091 134.417C222.817 134.813 222.724 135.19 222.811 135.548C222.892 135.901 223.085 136.234 223.389 136.547C223.698 136.853 224.107 137.182 224.616 137.534C225.144 137.899 225.609 138.175 226.011 138.359C226.413 138.544 226.793 138.612 227.153 138.563C227.516 138.508 227.835 138.282 228.109 137.886C228.383 137.49 228.479 137.115 228.398 136.762C228.322 136.402 228.126 136.067 227.811 135.756C227.496 135.446 227.074 135.108 226.546 134.743ZM230.649 132.357C231.007 132.512 231.339 132.542 231.646 132.447C231.953 132.353 232.228 132.129 232.472 131.777C232.781 131.331 232.831 130.882 232.622 130.431C232.413 129.98 231.885 129.461 231.036 128.874C231.145 129.173 231.164 129.502 231.092 129.861C231.018 130.21 230.871 130.545 230.649 130.865C230.366 131.274 230.028 131.589 229.634 131.809C229.234 132.025 228.803 132.117 228.341 132.086C227.878 132.044 227.41 131.86 226.939 131.534C226.247 131.056 225.836 130.474 225.705 129.789C225.573 129.094 225.752 128.391 226.244 127.68C226.835 126.825 227.541 126.416 228.361 126.453C229.179 126.48 230.175 126.9 231.351 127.713C232.162 128.273 232.778 128.801 233.198 129.296C233.622 129.784 233.851 130.287 233.885 130.803C233.918 131.318 233.731 131.872 233.322 132.463C232.857 133.136 232.322 133.533 231.718 133.654C231.114 133.775 230.529 133.673 229.964 133.347L230.649 132.357ZM229.874 130.051C230.135 129.673 230.223 129.298 230.138 128.923C230.051 128.538 229.813 128.21 229.423 127.941C228.989 127.641 228.572 127.524 228.173 127.592C227.771 127.649 227.433 127.875 227.159 128.271C226.885 128.667 226.794 129.069 226.884 129.475C226.973 129.871 227.219 130.208 227.621 130.486C228.005 130.752 228.398 130.861 228.802 130.815C229.204 130.758 229.561 130.503 229.874 130.051Z" fill="white"/>
<path d="M223.886 138.591C222.798 137.839 222.075 137.069 221.717 136.283C221.358 135.486 221.489 134.638 222.11 133.739C222.732 132.84 223.477 132.421 224.345 132.482C225.212 132.533 226.189 132.934 227.277 133.686C228.377 134.447 229.11 135.228 229.476 136.03C229.84 136.82 229.711 137.665 229.09 138.564C228.468 139.463 227.721 139.885 226.848 139.83C225.973 139.765 224.986 139.351 223.886 138.591ZM226.546 134.743C226.037 134.39 225.582 134.127 225.182 133.953C224.787 133.772 224.409 133.707 224.05 133.756C223.685 133.8 223.365 134.021 223.091 134.417C222.817 134.813 222.724 135.19 222.811 135.548C222.892 135.901 223.085 136.234 223.389 136.547C223.698 136.853 224.107 137.182 224.616 137.534C225.144 137.899 225.609 138.175 226.011 138.359C226.413 138.544 226.793 138.612 227.153 138.563C227.516 138.508 227.835 138.282 228.109 137.886C228.383 137.49 228.479 137.115 228.398 136.762C228.322 136.402 228.126 136.067 227.811 135.756C227.496 135.446 227.074 135.108 226.546 134.743ZM230.649 132.357C231.007 132.512 231.339 132.542 231.646 132.447C231.953 132.353 232.228 132.129 232.472 131.777C232.781 131.331 232.831 130.882 232.622 130.431C232.413 129.98 231.885 129.461 231.036 128.874C231.145 129.173 231.164 129.502 231.092 129.861C231.018 130.21 230.871 130.545 230.649 130.865C230.366 131.274 230.028 131.589 229.634 131.809C229.234 132.025 228.803 132.117 228.341 132.086C227.878 132.044 227.41 131.86 226.939 131.534C226.247 131.056 225.836 130.474 225.705 129.789C225.573 129.094 225.752 128.391 226.244 127.68C226.835 126.825 227.541 126.416 228.361 126.453C229.179 126.48 230.175 126.9 231.351 127.713C232.162 128.273 232.778 128.801 233.198 129.296C233.622 129.784 233.851 130.287 233.885 130.803C233.918 131.318 233.731 131.872 233.322 132.463C232.857 133.136 232.322 133.533 231.718 133.654C231.114 133.775 230.529 133.673 229.964 133.347L230.649 132.357ZM229.874 130.051C230.135 129.673 230.223 129.298 230.138 128.923C230.051 128.538 229.813 128.21 229.423 127.941C228.989 127.641 228.572 127.524 228.173 127.592C227.771 127.649 227.433 127.875 227.159 128.271C226.885 128.667 226.794 129.069 226.884 129.475C226.973 129.871 227.219 130.208 227.621 130.486C228.005 130.752 228.398 130.861 228.802 130.815C229.204 130.758 229.561 130.503 229.874 130.051Z" fill="url(#paint4_linear_3416_24413)"/>
<rect x="212.805" y="136.276" width="22.044" height="22.437" rx="11.022" transform="rotate(-55.3393 212.805 136.276)" stroke="url(#paint5_linear_3416_24413)" stroke-width="1.34226"/>
<g filter="url(#filter0_f_3416_24413)">
<circle cx="92.5528" cy="35.7828" r="4.41607" fill="white"/>
</g>
<g opacity="0.4" filter="url(#filter1_f_3416_24413)">
<ellipse cx="142.495" cy="107.798" rx="10.8703" ry="10.5306" fill="white"/>
</g>
<g filter="url(#filter2_f_3416_24413)">
<circle cx="234.782" cy="63.2979" r="6.79395" fill="white"/>
</g>
<path d="M219.08 58.3764C220.79 58.1617 222.154 57.962 223.175 57.7774C224.214 57.589 225.161 57.3065 226.015 56.9299C226.87 56.5533 227.516 56.0374 227.952 55.3822C228.404 54.7045 228.594 54.0644 228.523 53.462C228.462 52.8671 228.088 52.34 227.399 51.8808C226.732 51.4366 226.069 51.3049 225.411 51.4856C224.77 51.6627 224.202 52.0995 223.705 52.7961L221.841 51.5538C222.733 50.2886 223.772 49.5619 224.958 49.3735C226.163 49.1813 227.336 49.4655 228.477 50.2259C229.708 51.0466 230.443 52.0254 230.68 53.1624C230.929 54.307 230.676 55.4441 229.924 56.5737C229.381 57.387 228.649 58.0328 227.727 58.5111C226.823 58.9856 225.884 59.3302 224.909 59.5449C223.952 59.7558 222.774 59.9574 221.373 60.1496L220.159 60.3191L225.53 63.8991L224.458 65.5088L216.223 60.0202L217.16 58.6139L219.08 58.3764ZM232.208 57.4844C232.976 56.479 233.923 55.9273 235.048 55.8293C236.185 55.7388 237.33 56.0776 238.482 56.8455C239.273 57.3726 239.862 57.9693 240.25 58.6356C240.638 59.302 240.817 59.976 240.787 60.6574C240.757 61.3389 240.539 61.9847 240.132 62.5946C239.665 63.295 239.08 63.7695 238.376 64.018C237.672 64.2666 237.003 64.3025 236.371 64.1256L236.326 64.1933C236.857 64.8409 237.128 65.56 237.139 66.3506C237.158 67.13 236.889 67.9377 236.332 68.7736C235.888 69.44 235.34 69.9314 234.688 70.2478C234.037 70.5641 233.31 70.6753 232.509 70.5812C231.714 70.4759 230.899 70.1446 230.063 69.5875C228.843 68.7744 228.045 67.7937 227.668 66.6453C227.31 65.4933 227.495 64.311 228.221 63.0986L230.085 64.3408C229.731 64.9697 229.635 65.6154 229.797 66.278C229.967 66.9294 230.407 67.4922 231.119 67.9665C231.808 68.4258 232.463 68.5933 233.084 68.4689C233.713 68.3333 234.227 67.9662 234.626 67.3675C235.153 66.5768 235.272 65.8482 234.982 65.1818C234.71 64.5117 234.055 63.8302 233.016 63.1376L232.575 62.844L233.637 61.2512L234.095 61.5561C235.017 62.1547 235.813 62.4652 236.484 62.4877C237.165 62.5178 237.717 62.2165 238.138 61.5839C238.5 61.0417 238.611 60.4958 238.471 59.9461C238.339 59.3851 237.952 58.89 237.308 58.4609C236.675 58.0393 236.075 57.8755 235.506 57.9697C234.945 58.0526 234.473 58.3087 234.089 58.738L232.208 57.4844Z" fill="white"/>
<path d="M219.08 58.3764C220.79 58.1617 222.154 57.962 223.175 57.7774C224.214 57.589 225.161 57.3065 226.015 56.9299C226.87 56.5533 227.516 56.0374 227.952 55.3822C228.404 54.7045 228.594 54.0644 228.523 53.462C228.462 52.8671 228.088 52.34 227.399 51.8808C226.732 51.4366 226.069 51.3049 225.411 51.4856C224.77 51.6627 224.202 52.0995 223.705 52.7961L221.841 51.5538C222.733 50.2886 223.772 49.5619 224.958 49.3735C226.163 49.1813 227.336 49.4655 228.477 50.2259C229.708 51.0466 230.443 52.0254 230.68 53.1624C230.929 54.307 230.676 55.4441 229.924 56.5737C229.381 57.387 228.649 58.0328 227.727 58.5111C226.823 58.9856 225.884 59.3302 224.909 59.5449C223.952 59.7558 222.774 59.9574 221.373 60.1496L220.159 60.3191L225.53 63.8991L224.458 65.5088L216.223 60.0202L217.16 58.6139L219.08 58.3764ZM232.208 57.4844C232.976 56.479 233.923 55.9273 235.048 55.8293C236.185 55.7388 237.33 56.0776 238.482 56.8455C239.273 57.3726 239.862 57.9693 240.25 58.6356C240.638 59.302 240.817 59.976 240.787 60.6574C240.757 61.3389 240.539 61.9847 240.132 62.5946C239.665 63.295 239.08 63.7695 238.376 64.018C237.672 64.2666 237.003 64.3025 236.371 64.1256L236.326 64.1933C236.857 64.8409 237.128 65.56 237.139 66.3506C237.158 67.13 236.889 67.9377 236.332 68.7736C235.888 69.44 235.34 69.9314 234.688 70.2478C234.037 70.5641 233.31 70.6753 232.509 70.5812C231.714 70.4759 230.899 70.1446 230.063 69.5875C228.843 68.7744 228.045 67.7937 227.668 66.6453C227.31 65.4933 227.495 64.311 228.221 63.0986L230.085 64.3408C229.731 64.9697 229.635 65.6154 229.797 66.278C229.967 66.9294 230.407 67.4922 231.119 67.9665C231.808 68.4258 232.463 68.5933 233.084 68.4689C233.713 68.3333 234.227 67.9662 234.626 67.3675C235.153 66.5768 235.272 65.8482 234.982 65.1818C234.71 64.5117 234.055 63.8302 233.016 63.1376L232.575 62.844L233.637 61.2512L234.095 61.5561C235.017 62.1547 235.813 62.4652 236.484 62.4877C237.165 62.5178 237.717 62.2165 238.138 61.5839C238.5 61.0417 238.611 60.4958 238.471 59.9461C238.339 59.3851 237.952 58.89 237.308 58.4609C236.675 58.0393 236.075 57.8755 235.506 57.9697C234.945 58.0526 234.473 58.3087 234.089 58.738L232.208 57.4844Z" fill="url(#paint6_linear_3416_24413)"/>
<rect x="223.811" y="32.9667" width="39.1478" height="39.8458" rx="19.5739" transform="rotate(33.6839 223.811 32.9667)" stroke="url(#paint7_linear_3416_24413)" stroke-width="2.38372"/>
<path d="M132.277 124.271L133.072 121.905L146.769 111.751L150.565 113.026L146.231 125.928L148.789 126.787L147.875 129.51L145.316 128.651L143.912 132.832L140.831 131.797L142.235 127.616L132.277 124.271ZM146.549 115.229L136.796 122.758L143.288 124.939L146.549 115.229ZM155.972 125.22C154.386 123.626 153.937 121.802 154.627 119.748C154.96 118.758 155.512 117.933 156.285 117.274C157.057 116.615 158.018 116.214 159.169 116.07C160.325 115.907 161.619 116.066 163.049 116.547C164.461 117.021 165.579 117.672 166.403 118.5C167.252 119.315 167.785 120.219 168.003 121.211C168.221 122.202 168.164 123.193 167.831 124.183C167.486 125.21 166.915 126.029 166.118 126.639C165.346 127.236 164.458 127.601 163.455 127.734C164.371 128.47 164.983 129.38 165.293 130.463C165.608 131.529 165.569 132.648 165.175 133.822C164.775 135.014 164.118 135.967 163.205 136.68C162.291 137.394 161.211 137.817 159.962 137.948C158.714 138.08 157.402 137.915 156.027 137.453C154.651 136.991 153.506 136.331 152.59 135.472C151.693 134.619 151.096 133.633 150.798 132.513C150.501 131.393 150.553 130.237 150.953 129.045C151.354 127.853 152.001 126.927 152.896 126.269C153.791 125.61 154.816 125.261 155.972 125.22ZM164.703 123.561C165.048 122.534 164.992 121.638 164.535 120.872C164.078 120.106 163.29 119.536 162.171 119.16C161.071 118.79 160.108 118.773 159.281 119.107C158.454 119.442 157.865 120.132 157.514 121.177C157.206 122.094 157.284 122.957 157.747 123.765C158.234 124.562 159.001 125.136 160.046 125.487C161.092 125.838 162.052 125.834 162.928 125.475C163.803 125.116 164.395 124.478 164.703 123.561ZM159.252 127.852C158.041 127.446 156.949 127.416 155.976 127.762C155.027 128.097 154.364 128.823 153.989 129.942C153.637 130.987 153.718 131.963 154.23 132.87C154.748 133.758 155.639 134.415 156.905 134.84C158.152 135.258 159.244 135.258 160.181 134.838C161.136 134.424 161.786 133.704 162.131 132.677C162.501 131.577 162.411 130.597 161.863 129.74C161.332 128.888 160.462 128.259 159.252 127.852Z" fill="white"/>
<path d="M132.277 124.271L133.072 121.905L146.769 111.751L150.565 113.026L146.231 125.928L148.789 126.787L147.875 129.51L145.316 128.651L143.912 132.832L140.831 131.797L142.235 127.616L132.277 124.271ZM146.549 115.229L136.796 122.758L143.288 124.939L146.549 115.229ZM155.972 125.22C154.386 123.626 153.937 121.802 154.627 119.748C154.96 118.758 155.512 117.933 156.285 117.274C157.057 116.615 158.018 116.214 159.169 116.07C160.325 115.907 161.619 116.066 163.049 116.547C164.461 117.021 165.579 117.672 166.403 118.5C167.252 119.315 167.785 120.219 168.003 121.211C168.221 122.202 168.164 123.193 167.831 124.183C167.486 125.21 166.915 126.029 166.118 126.639C165.346 127.236 164.458 127.601 163.455 127.734C164.371 128.47 164.983 129.38 165.293 130.463C165.608 131.529 165.569 132.648 165.175 133.822C164.775 135.014 164.118 135.967 163.205 136.68C162.291 137.394 161.211 137.817 159.962 137.948C158.714 138.08 157.402 137.915 156.027 137.453C154.651 136.991 153.506 136.331 152.59 135.472C151.693 134.619 151.096 133.633 150.798 132.513C150.501 131.393 150.553 130.237 150.953 129.045C151.354 127.853 152.001 126.927 152.896 126.269C153.791 125.61 154.816 125.261 155.972 125.22ZM164.703 123.561C165.048 122.534 164.992 121.638 164.535 120.872C164.078 120.106 163.29 119.536 162.171 119.16C161.071 118.79 160.108 118.773 159.281 119.107C158.454 119.442 157.865 120.132 157.514 121.177C157.206 122.094 157.284 122.957 157.747 123.765C158.234 124.562 159.001 125.136 160.046 125.487C161.092 125.838 162.052 125.834 162.928 125.475C163.803 125.116 164.395 124.478 164.703 123.561ZM159.252 127.852C158.041 127.446 156.949 127.416 155.976 127.762C155.027 128.097 154.364 128.823 153.989 129.942C153.637 130.987 153.718 131.963 154.23 132.87C154.748 133.758 155.639 134.415 156.905 134.84C158.152 135.258 159.244 135.258 160.181 134.838C161.136 134.424 161.786 133.704 162.131 132.677C162.501 131.577 162.411 130.597 161.863 129.74C161.332 128.888 160.462 128.259 159.252 127.852Z" fill="url(#paint8_linear_3416_24413)"/>
<rect x="123.232" y="69.2764" width="86.7977" height="88.325" rx="43.3989" transform="rotate(18.5677 123.232 69.2764)" stroke="white" stroke-opacity="0.2" stroke-width="4.07637"/>
<rect x="123.232" y="69.2764" width="86.7977" height="88.325" rx="43.3989" transform="rotate(18.5677 123.232 69.2764)" stroke="url(#paint9_linear_3416_24413)" stroke-width="4.07637"/>
<defs>
<filter id="filter0_f_3416_24413" x="73.4471" y="16.6771" width="38.2113" height="38.2113" filterUnits="userSpaceOnUse" color-interpolation-filters="sRGB">
<feFlood flood-opacity="0" result="BackgroundImageFix"/>
<feBlend mode="normal" in="SourceGraphic" in2="BackgroundImageFix" result="shape"/>
<feGaussianBlur stdDeviation="7.34481" result="effect1_foregroundBlur_3416_24413"/>
</filter>
<filter id="filter1_f_3416_24413" x="99.014" y="64.6566" width="86.9641" height="86.283" filterUnits="userSpaceOnUse" color-interpolation-filters="sRGB">
<feFlood flood-opacity="0" result="BackgroundImageFix"/>
<feBlend mode="normal" in="SourceGraphic" in2="BackgroundImageFix" result="shape"/>
<feGaussianBlur stdDeviation="16.3055" result="effect1_foregroundBlur_3416_24413"/>
</filter>
<filter id="filter2_f_3416_24413" x="200.812" y="29.3281" width="67.9415" height="67.9395" filterUnits="userSpaceOnUse" color-interpolation-filters="sRGB">
<feFlood flood-opacity="0" result="BackgroundImageFix"/>
<feBlend mode="normal" in="SourceGraphic" in2="BackgroundImageFix" result="shape"/>
<feGaussianBlur stdDeviation="13.5879" result="effect1_foregroundBlur_3416_24413"/>
</filter>
<linearGradient id="paint0_linear_3416_24413" x1="149.884" y1="42.4248" x2="146.845" y2="61.6055" gradientUnits="userSpaceOnUse">
<stop stop-color="#FCA43D"/>
<stop offset="0.130208" stop-color="#FFB053"/>
<stop offset="0.21875" stop-color="#F39930"/>
<stop offset="0.473958" stop-color="#FDC584"/>
<stop offset="0.59375" stop-color="#FFCF97"/>
<stop offset="0.760417" stop-color="#FFB156"/>
<stop offset="0.942708" stop-color="#FFD6A6"/>
<stop offset="1" stop-color="#FFF4E8"/>
</linearGradient>
<linearGradient id="paint1_linear_3416_24413" x1="158.207" y1="42.118" x2="174.466" y2="58.0071" gradientUnits="userSpaceOnUse">
<stop stop-color="#FCA43D"/>
<stop offset="0.130208" stop-color="#FFB053"/>
<stop offset="0.21875" stop-color="#F39930"/>
<stop offset="0.473958" stop-color="#FDC584"/>
<stop offset="0.59375" stop-color="#FFCF97"/>
<stop offset="0.760417" stop-color="#FFB156"/>
<stop offset="0.942708" stop-color="#FFD6A6"/>
<stop offset="1" stop-color="#FFF4E8"/>
</linearGradient>
<linearGradient id="paint2_linear_3416_24413" x1="52.8517" y1="40.1261" x2="82.0976" y2="73.4486" gradientUnits="userSpaceOnUse">
<stop stop-color="#FCA43D"/>
<stop offset="0.130208" stop-color="#FFB053"/>
<stop offset="0.21875" stop-color="#F39930"/>
<stop offset="0.473958" stop-color="#FDC584"/>
<stop offset="0.59375" stop-color="#FFCF97"/>
<stop offset="0.760417" stop-color="#FFB156"/>
<stop offset="0.942708" stop-color="#FFD6A6"/>
<stop offset="1" stop-color="#FFF4E8"/>
</linearGradient>
<linearGradient id="paint3_linear_3416_24413" x1="57.2112" y1="34.7506" x2="95.8814" y2="72.5412" gradientUnits="userSpaceOnUse">
<stop stop-color="#FCA43D"/>
<stop offset="0.130208" stop-color="#FFB053"/>
<stop offset="0.21875" stop-color="#F39930"/>
<stop offset="0.473958" stop-color="#FDC584"/>
<stop offset="0.59375" stop-color="#FFCF97"/>
<stop offset="0.760417" stop-color="#FFB156"/>
<stop offset="0.942708" stop-color="#FFD6A6"/>
<stop offset="1" stop-color="#FFF4E8"/>
</linearGradient>
<linearGradient id="paint4_linear_3416_24413" x1="217.729" y1="141.982" x2="236.808" y2="146.048" gradientUnits="userSpaceOnUse">
<stop stop-color="#FCA43D"/>
<stop offset="0.130208" stop-color="#FFB053"/>
<stop offset="0.21875" stop-color="#F39930"/>
<stop offset="0.473958" stop-color="#FDC584"/>
<stop offset="0.59375" stop-color="#FFCF97"/>
<stop offset="0.760417" stop-color="#FFB156"/>
<stop offset="0.942708" stop-color="#FFD6A6"/>
<stop offset="1" stop-color="#FFF4E8"/>
</linearGradient>
<linearGradient id="paint5_linear_3416_24413" x1="215.223" y1="142.116" x2="231.971" y2="158.483" gradientUnits="userSpaceOnUse">
<stop stop-color="#FCA43D"/>
<stop offset="0.130208" stop-color="#FFB053"/>
<stop offset="0.21875" stop-color="#F39930"/>
<stop offset="0.473958" stop-color="#FDC584"/>
<stop offset="0.59375" stop-color="#FFCF97"/>
<stop offset="0.760417" stop-color="#FFB156"/>
<stop offset="0.942708" stop-color="#FFD6A6"/>
<stop offset="1" stop-color="#FFF4E8"/>
</linearGradient>
<linearGradient id="paint6_linear_3416_24413" x1="213.734" y1="42.0205" x2="206.945" y2="75.2665" gradientUnits="userSpaceOnUse">
<stop stop-color="#FCA43D"/>
<stop offset="0.130208" stop-color="#FFB053"/>
<stop offset="0.21875" stop-color="#F39930"/>
<stop offset="0.473958" stop-color="#FDC584"/>
<stop offset="0.59375" stop-color="#FFCF97"/>
<stop offset="0.760417" stop-color="#FFB156"/>
<stop offset="0.942708" stop-color="#FFD6A6"/>
<stop offset="1" stop-color="#FFF4E8"/>
</linearGradient>
<linearGradient id="paint7_linear_3416_24413" x1="229.432" y1="41.3819" x2="259.175" y2="70.448" gradientUnits="userSpaceOnUse">
<stop stop-color="#FCA43D"/>
<stop offset="0.130208" stop-color="#FFB053"/>
<stop offset="0.21875" stop-color="#F39930"/>
<stop offset="0.473958" stop-color="#FDC584"/>
<stop offset="0.59375" stop-color="#FFCF97"/>
<stop offset="0.760417" stop-color="#FFB156"/>
<stop offset="0.942708" stop-color="#FFD6A6"/>
<stop offset="1" stop-color="#FFF4E8"/>
</linearGradient>
<linearGradient id="paint8_linear_3416_24413" x1="122.406" y1="105.376" x2="125.393" y2="153.582" gradientUnits="userSpaceOnUse">
<stop stop-color="#FCA43D"/>
<stop offset="0.130208" stop-color="#FFB053"/>
<stop offset="0.21875" stop-color="#F39930"/>
<stop offset="0.473958" stop-color="#FDC584"/>
<stop offset="0.59375" stop-color="#FFCF97"/>
<stop offset="0.760417" stop-color="#FFB156"/>
<stop offset="0.942708" stop-color="#FFD6A6"/>
<stop offset="1" stop-color="#FFF4E8"/>
</linearGradient>
<linearGradient id="paint9_linear_3416_24413" x1="134.973" y1="88.7248" x2="200.052" y2="152.324" gradientUnits="userSpaceOnUse">
<stop stop-color="#FCA43D"/>
<stop offset="0.130208" stop-color="#FFB053"/>
<stop offset="0.21875" stop-color="#F39930"/>
<stop offset="0.473958" stop-color="#FDC584"/>
<stop offset="0.59375" stop-color="#FFCF97"/>
<stop offset="0.760417" stop-color="#FFB156"/>
<stop offset="0.942708" stop-color="#FFD6A6"/>
<stop offset="1" stop-color="#FFF4E8"/>
</linearGradient>
</defs>
</svg>
