<svg width="582" height="259" viewBox="0 0 582 259" fill="none" xmlns="http://www.w3.org/2000/svg">
<g opacity="0.5">
<path d="M454.79 238.798C454.524 238.502 454.237 238.328 453.931 238.274C453.624 238.221 453.278 238.299 452.894 238.508C452.31 238.826 451.997 239.288 451.954 239.896C451.907 240.496 452.157 241.317 452.705 242.36C452.721 241.93 452.865 241.526 453.138 241.148C453.411 240.769 453.762 240.464 454.19 240.231C454.678 239.965 455.165 239.839 455.651 239.853C456.14 239.854 456.597 239.999 457.021 240.285C457.452 240.568 457.819 240.986 458.12 241.54C458.402 242.058 458.549 242.576 458.564 243.095C458.585 243.61 458.461 244.094 458.19 244.548C457.916 244.994 457.498 245.37 456.936 245.675C456.175 246.089 455.486 246.248 454.869 246.153C454.256 246.046 453.693 245.734 453.182 245.217C452.679 244.697 452.178 243.978 451.679 243.062C450.208 240.357 450.426 238.486 452.332 237.449C453.071 237.047 453.76 236.931 454.398 237.101C455.044 237.267 455.562 237.621 455.954 238.165L454.79 238.798ZM454.492 241.445C454.041 241.691 453.731 242.036 453.562 242.483C453.396 242.918 453.452 243.39 453.73 243.9C454.007 244.41 454.372 244.738 454.825 244.884C455.282 245.019 455.772 244.944 456.297 244.658C456.762 244.405 457.05 244.062 457.159 243.629C457.276 243.192 457.203 242.733 456.942 242.253C456.669 241.75 456.319 241.424 455.892 241.273C455.468 241.111 455.002 241.168 454.492 241.445ZM458.678 239.355C457.983 238.077 457.655 236.962 457.693 236.012C457.735 235.051 458.285 234.283 459.342 233.708C460.398 233.133 461.338 233.091 462.161 233.582C462.986 234.062 463.747 234.941 464.443 236.22C465.146 237.513 465.479 238.644 465.441 239.613C465.406 240.57 464.86 241.336 463.803 241.911C462.747 242.486 461.803 242.53 460.973 242.043C460.147 241.544 459.382 240.648 458.678 239.355ZM463.201 236.895C462.875 236.296 462.559 235.812 462.253 235.443C461.954 235.069 461.616 234.817 461.239 234.687C460.858 234.55 460.434 234.608 459.969 234.861C459.503 235.114 459.224 235.438 459.133 235.833C459.037 236.22 459.061 236.643 459.205 237.101C459.356 237.555 459.594 238.081 459.92 238.68C460.258 239.3 460.578 239.801 460.881 240.182C461.184 240.563 461.524 240.819 461.901 240.949C462.286 241.075 462.711 241.011 463.176 240.758C463.642 240.505 463.923 240.185 464.018 239.797C464.122 239.406 464.096 238.98 463.94 238.518C463.785 238.057 463.539 237.516 463.201 236.895Z" fill="white"/>
<path d="M454.79 238.798C454.524 238.502 454.237 238.328 453.931 238.274C453.624 238.221 453.278 238.299 452.894 238.508C452.31 238.826 451.997 239.288 451.954 239.896C451.907 240.496 452.157 241.317 452.705 242.36C452.721 241.93 452.865 241.526 453.138 241.148C453.411 240.769 453.762 240.464 454.19 240.231C454.678 239.965 455.165 239.839 455.651 239.853C456.14 239.854 456.597 239.999 457.021 240.285C457.452 240.568 457.819 240.986 458.12 241.54C458.402 242.058 458.549 242.576 458.564 243.095C458.585 243.61 458.461 244.094 458.19 244.548C457.916 244.994 457.498 245.37 456.936 245.675C456.175 246.089 455.486 246.248 454.869 246.153C454.256 246.046 453.693 245.734 453.182 245.217C452.679 244.697 452.178 243.978 451.679 243.062C450.208 240.357 450.426 238.486 452.332 237.449C453.071 237.047 453.76 236.931 454.398 237.101C455.044 237.267 455.562 237.621 455.954 238.165L454.79 238.798ZM454.492 241.445C454.041 241.691 453.731 242.036 453.562 242.483C453.396 242.918 453.452 243.39 453.73 243.9C454.007 244.41 454.372 244.738 454.825 244.884C455.282 245.019 455.772 244.944 456.297 244.658C456.762 244.405 457.05 244.062 457.159 243.629C457.276 243.192 457.203 242.733 456.942 242.253C456.669 241.75 456.319 241.424 455.892 241.273C455.468 241.111 455.002 241.168 454.492 241.445ZM458.678 239.355C457.983 238.077 457.655 236.962 457.693 236.012C457.735 235.051 458.285 234.283 459.342 233.708C460.398 233.133 461.338 233.091 462.161 233.582C462.986 234.062 463.747 234.941 464.443 236.22C465.146 237.513 465.479 238.644 465.441 239.613C465.406 240.57 464.86 241.336 463.803 241.911C462.747 242.486 461.803 242.53 460.973 242.043C460.147 241.544 459.382 240.648 458.678 239.355ZM463.201 236.895C462.875 236.296 462.559 235.812 462.253 235.443C461.954 235.069 461.616 234.817 461.239 234.687C460.858 234.55 460.434 234.608 459.969 234.861C459.503 235.114 459.224 235.438 459.133 235.833C459.037 236.22 459.061 236.643 459.205 237.101C459.356 237.555 459.594 238.081 459.92 238.68C460.258 239.3 460.578 239.801 460.881 240.182C461.184 240.563 461.524 240.819 461.901 240.949C462.286 241.075 462.711 241.011 463.176 240.758C463.642 240.505 463.923 240.185 464.018 239.797C464.122 239.406 464.096 238.98 463.94 238.518C463.785 238.057 463.539 237.516 463.201 236.895Z" fill="url(#paint0_linear_1_116)"/>
<rect x="441.797" y="235.302" width="24.2597" height="24.6923" rx="12.1299" transform="rotate(-28.5439 441.797 235.302)" stroke="url(#paint1_linear_1_116)" stroke-width="1.47718"/>
</g>
<path d="M107.433 208.713L108.342 207.272L111.225 209.09L104.852 219.193L103.259 218.187L108.722 209.526L107.433 208.713ZM109.251 218.964C110.621 218.757 111.715 218.569 112.532 218.4C113.364 218.227 114.12 217.981 114.8 217.66C115.48 217.34 115.988 216.912 116.326 216.376C116.676 215.822 116.816 215.303 116.746 214.82C116.686 214.343 116.374 213.927 115.81 213.571C115.265 213.227 114.729 213.135 114.203 213.294C113.692 213.449 113.243 213.812 112.858 214.382L111.333 213.421C112.025 212.385 112.847 211.779 113.797 211.604C114.762 211.425 115.711 211.63 116.644 212.218C117.651 212.853 118.262 213.626 118.476 214.536C118.699 215.451 118.519 216.371 117.936 217.295C117.517 217.96 116.941 218.494 116.208 218.898C115.491 219.298 114.743 219.594 113.962 219.786C113.198 219.975 112.254 220.161 111.131 220.344L110.158 220.505L114.551 223.276L113.72 224.593L106.985 220.344L107.711 219.194L109.251 218.964Z" fill="white"/>
<path d="M107.433 208.713L108.342 207.272L111.225 209.09L104.852 219.193L103.259 218.187L108.722 209.526L107.433 208.713ZM109.251 218.964C110.621 218.757 111.715 218.569 112.532 218.4C113.364 218.227 114.12 217.981 114.8 217.66C115.48 217.34 115.988 216.912 116.326 216.376C116.676 215.822 116.816 215.303 116.746 214.82C116.686 214.343 116.374 213.927 115.81 213.571C115.265 213.227 114.729 213.135 114.203 213.294C113.692 213.449 113.243 213.812 112.858 214.382L111.333 213.421C112.025 212.385 112.847 211.779 113.797 211.604C114.762 211.425 115.711 211.63 116.644 212.218C117.651 212.853 118.262 213.626 118.476 214.536C118.699 215.451 118.519 216.371 117.936 217.295C117.517 217.96 116.941 218.494 116.208 218.898C115.491 219.298 114.743 219.594 113.962 219.786C113.198 219.975 112.254 220.161 111.131 220.344L110.158 220.505L114.551 223.276L113.72 224.593L106.985 220.344L107.711 219.194L109.251 218.964Z" fill="url(#paint2_linear_1_116)"/>
<rect x="105.934" y="194.419" width="31.4991" height="32.0608" rx="15.7496" transform="rotate(32.2434 105.934 194.419)" stroke="url(#paint3_linear_1_116)" stroke-width="1.91799"/>
<g opacity="0.6">
<path d="M18.6432 230.364L17.8815 229.179L18.2437 219.559L20.1459 218.337L24.2999 224.801L25.5818 223.978L26.4587 225.342L25.1768 226.166L26.5231 228.261L24.9793 229.253L23.633 227.158L18.6432 230.364ZM19.6984 220.883L19.572 227.839L22.825 225.749L19.6984 220.883ZM29.7977 213.673L31.6433 224.971L30.0581 225.99L28.3602 214.831L23.2602 218.108L22.401 216.771L29.0449 212.502L29.7977 213.673Z" fill="white"/>
<path d="M18.6432 230.364L17.8815 229.179L18.2437 219.559L20.1459 218.337L24.2999 224.801L25.5818 223.978L26.4587 225.342L25.1768 226.166L26.5231 228.261L24.9793 229.253L23.633 227.158L18.6432 230.364ZM19.6984 220.883L19.572 227.839L22.825 225.749L19.6984 220.883ZM29.7977 213.673L31.6433 224.971L30.0581 225.99L28.3602 214.831L23.2602 218.108L22.401 216.771L29.0449 212.502L29.7977 213.673Z" fill="url(#paint4_linear_1_116)"/>
<rect x="2.78523" y="217.922" width="31.4992" height="32.0608" rx="15.7496" transform="rotate(-32.7239 2.78523 217.922)" stroke="url(#paint5_linear_1_116)" stroke-width="1.91799"/>
</g>
<path d="M42.1257 130.318C40.5483 131.041 39.1084 130.878 37.8061 129.831C37.1782 129.326 36.7289 128.706 36.4582 127.971C36.1875 127.236 36.1535 126.433 36.3562 125.562C36.5474 124.682 37.0077 123.788 37.7373 122.881C38.4575 121.985 39.2271 121.35 40.0462 120.975C40.8629 120.578 41.6592 120.434 42.435 120.541C43.2108 120.648 43.9127 120.954 44.5406 121.459C45.1917 121.983 45.6317 122.614 45.8604 123.354C46.0869 124.072 46.1141 124.812 45.9419 125.574C46.7192 125.107 47.5413 124.907 48.4081 124.972C49.2633 125.028 50.063 125.355 50.8071 125.954C51.563 126.562 52.0772 127.291 52.35 128.143C52.6227 128.994 52.6401 129.889 52.4022 130.828C52.1643 131.766 51.6946 132.672 50.9931 133.544C50.2916 134.416 49.5079 135.069 48.6421 135.502C47.7857 135.924 46.9124 136.093 46.0224 136.009C45.1323 135.925 44.3094 135.579 43.5536 134.971C42.7977 134.363 42.3009 133.648 42.0631 132.824C41.8252 132.001 41.8461 131.165 42.1257 130.318ZM43.2555 123.556C42.6043 123.033 41.9406 122.834 41.2644 122.96C40.5882 123.087 39.9648 123.504 39.3943 124.214C38.8331 124.911 38.5632 125.604 38.5847 126.292C38.6061 126.979 38.9483 127.59 39.611 128.123C40.1924 128.59 40.8375 128.765 41.5464 128.645C42.2529 128.505 42.8727 128.103 43.4059 127.441C43.939 126.778 44.1926 126.082 44.1666 125.352C44.1406 124.623 43.8369 124.024 43.2555 123.556ZM44.9059 128.647C44.2886 129.415 43.9753 130.197 43.9662 130.994C43.9548 131.77 44.3038 132.443 45.0131 133.014C45.6759 133.547 46.4036 133.749 47.1964 133.621C47.9775 133.483 48.6907 133.013 49.3361 132.211C49.9722 131.42 50.2633 130.63 50.2094 129.839C50.165 129.038 49.8172 128.375 49.166 127.851C48.4683 127.29 47.7359 127.093 46.9687 127.261C46.2108 127.418 45.5232 127.88 44.9059 128.647ZM54.5311 121.431C55.206 121.783 55.849 121.888 56.46 121.748C57.071 121.607 57.6383 121.211 58.1621 120.56C58.8262 119.734 58.987 118.868 58.6445 117.96C58.302 117.053 57.3459 115.968 55.7761 114.705C55.947 115.302 55.9371 115.945 55.7465 116.635C55.5536 117.303 55.2186 117.934 54.7416 118.527C54.1336 119.283 53.4306 119.847 52.6326 120.22C51.8229 120.584 50.9707 120.703 50.0761 120.577C49.1792 120.43 48.2948 120.006 47.4227 119.304C46.1436 118.275 45.4255 117.085 45.2683 115.733C45.1088 114.36 45.5575 113.016 46.6145 111.702C47.8865 110.121 49.3182 109.424 50.9095 109.613C52.4985 109.78 54.3802 110.738 56.5546 112.487C58.0546 113.694 59.1785 114.809 59.9262 115.831C60.6833 116.843 61.0581 117.853 61.0508 118.862C61.0434 119.871 60.6001 120.922 59.7209 122.015C58.7201 123.259 57.6228 123.957 56.4292 124.107C55.2355 124.258 54.1118 123.976 53.0579 123.263L54.5311 121.431ZM53.3478 116.831C53.909 116.133 54.1335 115.414 54.0213 114.672C53.9068 113.91 53.4891 113.239 52.7682 112.659C51.9658 112.014 51.1707 111.728 50.3828 111.803C49.5925 111.857 48.9028 112.25 48.3135 112.983C47.7243 113.715 47.4892 114.484 47.6082 115.288C47.725 116.071 48.1554 116.762 48.8996 117.361C49.6089 117.932 50.3598 118.2 51.1523 118.168C51.9425 118.114 52.6744 117.668 53.3478 116.831Z" fill="white"/>
<path d="M42.1257 130.318C40.5483 131.041 39.1084 130.878 37.8061 129.831C37.1782 129.326 36.7289 128.706 36.4582 127.971C36.1875 127.236 36.1535 126.433 36.3562 125.562C36.5474 124.682 37.0077 123.788 37.7373 122.881C38.4575 121.985 39.2271 121.35 40.0462 120.975C40.8629 120.578 41.6592 120.434 42.435 120.541C43.2108 120.648 43.9127 120.954 44.5406 121.459C45.1917 121.983 45.6317 122.614 45.8604 123.354C46.0869 124.072 46.1141 124.812 45.9419 125.574C46.7192 125.107 47.5413 124.907 48.4081 124.972C49.2633 125.028 50.063 125.355 50.8071 125.954C51.563 126.562 52.0772 127.291 52.35 128.143C52.6227 128.994 52.6401 129.889 52.4022 130.828C52.1643 131.766 51.6946 132.672 50.9931 133.544C50.2916 134.416 49.5079 135.069 48.6421 135.502C47.7857 135.924 46.9124 136.093 46.0224 136.009C45.1323 135.925 44.3094 135.579 43.5536 134.971C42.7977 134.363 42.3009 133.648 42.0631 132.824C41.8252 132.001 41.8461 131.165 42.1257 130.318ZM43.2555 123.556C42.6043 123.033 41.9406 122.834 41.2644 122.96C40.5882 123.087 39.9648 123.504 39.3943 124.214C38.8331 124.911 38.5632 125.604 38.5847 126.292C38.6061 126.979 38.9483 127.59 39.611 128.123C40.1924 128.59 40.8375 128.765 41.5464 128.645C42.2529 128.505 42.8727 128.103 43.4059 127.441C43.939 126.778 44.1926 126.082 44.1666 125.352C44.1406 124.623 43.8369 124.024 43.2555 123.556ZM44.9059 128.647C44.2886 129.415 43.9753 130.197 43.9662 130.994C43.9548 131.77 44.3038 132.443 45.0131 133.014C45.6759 133.547 46.4036 133.749 47.1964 133.621C47.9775 133.483 48.6907 133.013 49.3361 132.211C49.9722 131.42 50.2633 130.63 50.2094 129.839C50.165 129.038 49.8172 128.375 49.166 127.851C48.4683 127.29 47.7359 127.093 46.9687 127.261C46.2108 127.418 45.5232 127.88 44.9059 128.647ZM54.5311 121.431C55.206 121.783 55.849 121.888 56.46 121.748C57.071 121.607 57.6383 121.211 58.1621 120.56C58.8262 119.734 58.987 118.868 58.6445 117.96C58.302 117.053 57.3459 115.968 55.7761 114.705C55.947 115.302 55.9371 115.945 55.7465 116.635C55.5536 117.303 55.2186 117.934 54.7416 118.527C54.1336 119.283 53.4306 119.847 52.6326 120.22C51.8229 120.584 50.9707 120.703 50.0761 120.577C49.1792 120.43 48.2948 120.006 47.4227 119.304C46.1436 118.275 45.4255 117.085 45.2683 115.733C45.1088 114.36 45.5575 113.016 46.6145 111.702C47.8865 110.121 49.3182 109.424 50.9095 109.613C52.4985 109.78 54.3802 110.738 56.5546 112.487C58.0546 113.694 59.1785 114.809 59.9262 115.831C60.6833 116.843 61.0581 117.853 61.0508 118.862C61.0434 119.871 60.6001 120.922 59.7209 122.015C58.7201 123.259 57.6228 123.957 56.4292 124.107C55.2355 124.258 54.1118 123.976 53.0579 123.263L54.5311 121.431ZM53.3478 116.831C53.909 116.133 54.1335 115.414 54.0213 114.672C53.9068 113.91 53.4891 113.239 52.7682 112.659C51.9658 112.014 51.1707 111.728 50.3828 111.803C49.5925 111.857 48.9028 112.25 48.3135 112.983C47.7243 113.715 47.4892 114.484 47.6082 115.288C47.725 116.071 48.1554 116.762 48.8996 117.361C49.6089 117.932 50.3598 118.2 51.1523 118.168C51.9425 118.114 52.6744 117.668 53.3478 116.831Z" fill="url(#paint6_linear_1_116)"/>
<rect x="18.7344" y="126.096" width="43.0343" height="43.8016" rx="21.5172" transform="rotate(-51.187 18.7344 126.096)" stroke="url(#paint7_linear_1_116)" stroke-width="2.62037"/>
<path d="M156.845 60.0723C156.185 59.0356 155.402 58.3575 154.495 58.0381C153.588 57.7186 152.496 57.779 151.219 58.2191C149.278 58.8878 148.087 60.1363 147.646 61.9647C147.196 63.7684 147.539 66.3981 148.674 69.8536C148.941 68.5529 149.586 67.3961 150.611 66.3834C151.636 65.3707 152.861 64.6189 154.285 64.128C155.906 63.5694 157.454 63.4346 158.927 63.7236C160.417 63.9797 161.734 64.6524 162.879 65.7417C164.048 66.8225 164.95 68.284 165.585 70.1261C166.178 71.8454 166.363 73.499 166.141 75.0869C165.943 76.6663 165.316 78.0775 164.261 79.3206C163.197 80.539 161.732 81.4699 159.865 82.1132C157.335 82.985 155.155 83.118 153.325 82.5121C151.511 81.8732 149.958 80.6361 148.666 78.8006C147.399 76.9567 146.24 74.5119 145.191 71.4663C142.093 62.4768 143.712 56.8902 150.049 54.7064C152.505 53.86 154.662 53.8587 156.519 54.7025C158.401 55.5379 159.799 56.8835 160.713 58.7392L156.845 60.0723ZM154.583 67.9823C153.085 68.4986 151.964 69.3931 151.221 70.6659C150.494 71.9056 150.423 73.3728 151.007 75.0675C151.591 76.7623 152.536 77.9481 153.841 78.625C155.162 79.2689 156.694 79.2903 158.438 78.6894C159.985 78.1561 161.036 77.2582 161.59 75.9956C162.169 74.7245 162.183 73.2907 161.633 71.6942C161.057 70.0241 160.158 68.8501 158.935 68.1724C157.729 67.4616 156.278 67.3982 154.583 67.9823ZM170.705 72.1126L169.613 68.9442L175.872 46.9203L180.956 45.1682L186.911 62.4471L190.337 61.2663L191.594 64.9137L188.168 66.0945L190.098 71.6945L185.971 73.1165L184.042 67.5165L170.705 72.1126ZM178.487 50.8004L174.274 66.802L182.969 63.8056L178.487 50.8004Z" fill="white"/>
<path d="M156.845 60.0723C156.185 59.0356 155.402 58.3575 154.495 58.0381C153.588 57.7186 152.496 57.779 151.219 58.2191C149.278 58.8878 148.087 60.1363 147.646 61.9647C147.196 63.7684 147.539 66.3981 148.674 69.8536C148.941 68.5529 149.586 67.3961 150.611 66.3834C151.636 65.3707 152.861 64.6189 154.285 64.128C155.906 63.5694 157.454 63.4346 158.927 63.7236C160.417 63.9797 161.734 64.6524 162.879 65.7417C164.048 66.8225 164.95 68.284 165.585 70.1261C166.178 71.8454 166.363 73.499 166.141 75.0869C165.943 76.6663 165.316 78.0775 164.261 79.3206C163.197 80.539 161.732 81.4699 159.865 82.1132C157.335 82.985 155.155 83.118 153.325 82.5121C151.511 81.8732 149.958 80.6361 148.666 78.8006C147.399 76.9567 146.24 74.5119 145.191 71.4663C142.093 62.4768 143.712 56.8902 150.049 54.7064C152.505 53.86 154.662 53.8587 156.519 54.7025C158.401 55.5379 159.799 56.8835 160.713 58.7392L156.845 60.0723ZM154.583 67.9823C153.085 68.4986 151.964 69.3931 151.221 70.6659C150.494 71.9056 150.423 73.3728 151.007 75.0675C151.591 76.7623 152.536 77.9481 153.841 78.625C155.162 79.2689 156.694 79.2903 158.438 78.6894C159.985 78.1561 161.036 77.2582 161.59 75.9956C162.169 74.7245 162.183 73.2907 161.633 71.6942C161.057 70.0241 160.158 68.8501 158.935 68.1724C157.729 67.4616 156.278 67.3982 154.583 67.9823ZM170.705 72.1126L169.613 68.9442L175.872 46.9203L180.956 45.1682L186.911 62.4471L190.337 61.2663L191.594 64.9137L188.168 66.0945L190.098 71.6945L185.971 73.1165L184.042 67.5165L170.705 72.1126ZM178.487 50.8004L174.274 66.802L182.969 63.8056L178.487 50.8004Z" fill="url(#paint8_linear_1_116)"/>
<rect x="118.975" y="42.1272" width="74.9173" height="76.253" rx="37.4586" transform="rotate(-19.0149 118.975 42.1272)" stroke="url(#paint9_linear_1_116)" stroke-width="4.56172"/>
<path d="M291.183 25.7173C289.756 25.766 288.615 25.8281 287.759 25.9037C286.887 25.981 286.084 26.1429 285.35 26.3895C284.616 26.636 284.045 27.0132 283.635 27.5212C283.211 28.0466 283.006 28.5606 283.02 29.0632C283.025 29.5588 283.294 30.022 283.829 30.4529C284.345 30.8697 284.882 31.0283 285.44 30.9287C285.981 30.8307 286.483 30.5129 286.946 29.9754L288.391 31.141C287.559 32.1181 286.647 32.6398 285.654 32.7061C284.645 32.774 283.698 32.4512 282.814 31.7377C281.859 30.9677 281.327 30.1045 281.217 29.1482C281.097 28.1847 281.391 27.2652 282.098 26.3894C282.606 25.7589 283.259 25.281 284.057 24.9556C284.838 24.632 285.639 24.4182 286.46 24.3144C287.266 24.2122 288.253 24.1345 289.424 24.0813L290.439 24.0327L286.275 20.6736L287.282 19.4257L293.666 24.5756L292.786 25.6659L291.183 25.7173ZM279.646 26.6019L278.544 27.9681L275.812 25.764L283.537 16.188L285.047 17.4066L278.425 25.6165L279.646 26.6019Z" fill="white"/>
<path d="M291.183 25.7173C289.756 25.766 288.615 25.8281 287.759 25.9037C286.887 25.981 286.084 26.1429 285.35 26.3895C284.616 26.636 284.045 27.0132 283.635 27.5212C283.211 28.0466 283.006 28.5606 283.02 29.0632C283.025 29.5588 283.294 30.022 283.829 30.4529C284.345 30.8697 284.882 31.0283 285.44 30.9287C285.981 30.8307 286.483 30.5129 286.946 29.9754L288.391 31.141C287.559 32.1181 286.647 32.6398 285.654 32.7061C284.645 32.774 283.698 32.4512 282.814 31.7377C281.859 30.9677 281.327 30.1045 281.217 29.1482C281.097 28.1847 281.391 27.2652 282.098 26.3894C282.606 25.7589 283.259 25.281 284.057 24.9556C284.838 24.632 285.639 24.4182 286.46 24.3144C287.266 24.2122 288.253 24.1345 289.424 24.0813L290.439 24.0327L286.275 20.6736L287.282 19.4257L293.666 24.5756L292.786 25.6659L291.183 25.7173ZM279.646 26.6019L278.544 27.9681L275.812 25.764L283.537 16.188L285.047 17.4066L278.425 25.6165L279.646 26.6019Z" fill="url(#paint10_linear_1_116)"/>
<rect x="286.847" y="47.7824" width="32.4465" height="33.025" rx="16.2232" transform="rotate(-141.107 286.847 47.7824)" stroke="url(#paint11_linear_1_116)" stroke-width="1.97567"/>
<path d="M371.786 216.586C370.185 215.479 369.121 214.347 368.594 213.19C368.065 212.017 368.258 210.768 369.173 209.445C370.088 208.122 371.184 207.505 372.462 207.595C373.738 207.67 375.176 208.261 376.777 209.368C378.396 210.488 379.476 211.637 380.014 212.817C380.55 213.981 380.361 215.224 379.445 216.548C378.53 217.871 377.431 218.492 376.146 218.411C374.859 218.315 373.405 217.706 371.786 216.586ZM375.702 210.923C374.952 210.404 374.283 210.017 373.694 209.76C373.112 209.495 372.557 209.398 372.028 209.47C371.49 209.536 371.02 209.86 370.616 210.443C370.213 211.026 370.076 211.581 370.204 212.108C370.324 212.628 370.607 213.118 371.055 213.578C371.509 214.029 372.111 214.513 372.861 215.032C373.638 215.569 374.323 215.974 374.914 216.246C375.506 216.518 376.066 216.618 376.594 216.546C377.13 216.465 377.599 216.133 378.002 215.549C378.405 214.966 378.547 214.415 378.428 213.895C378.315 213.365 378.027 212.872 377.563 212.415C377.1 211.958 376.479 211.46 375.702 210.923ZM381.741 207.411C382.268 207.639 382.757 207.683 383.209 207.544C383.66 207.405 384.066 207.076 384.424 206.558C384.878 205.901 384.952 205.24 384.645 204.577C384.338 203.913 383.559 203.149 382.31 202.285C382.471 202.725 382.499 203.209 382.393 203.738C382.284 204.251 382.067 204.744 381.741 205.216C381.325 205.817 380.827 206.28 380.247 206.604C379.658 206.922 379.024 207.058 378.344 207.012C377.662 206.951 376.973 206.68 376.279 206.2C375.261 205.496 374.656 204.64 374.464 203.632C374.269 202.608 374.533 201.573 375.257 200.527C376.127 199.269 377.165 198.667 378.372 198.722C379.576 198.761 381.044 199.378 382.774 200.575C383.968 201.401 384.874 202.177 385.492 202.906C386.117 203.625 386.454 204.364 386.503 205.123C386.553 205.882 386.277 206.697 385.675 207.567C384.991 208.557 384.204 209.142 383.314 209.32C382.425 209.498 381.565 209.348 380.733 208.869L381.741 207.411ZM380.6 204.017C380.984 203.461 381.113 202.908 380.989 202.357C380.861 201.79 380.51 201.308 379.936 200.911C379.298 200.469 378.684 200.298 378.096 200.398C377.504 200.481 377.007 200.814 376.604 201.397C376.201 201.981 376.066 202.571 376.2 203.17C376.33 203.752 376.692 204.248 377.284 204.658C377.848 205.048 378.428 205.21 379.022 205.142C379.613 205.058 380.139 204.683 380.6 204.017Z" fill="white"/>
<path d="M371.786 216.586C370.185 215.479 369.121 214.347 368.594 213.19C368.065 212.017 368.258 210.768 369.173 209.445C370.088 208.122 371.184 207.505 372.462 207.595C373.738 207.67 375.176 208.261 376.777 209.368C378.396 210.488 379.476 211.637 380.014 212.817C380.55 213.981 380.361 215.224 379.445 216.548C378.53 217.871 377.431 218.492 376.146 218.411C374.859 218.315 373.405 217.706 371.786 216.586ZM375.702 210.923C374.952 210.404 374.283 210.017 373.694 209.76C373.112 209.495 372.557 209.398 372.028 209.47C371.49 209.536 371.02 209.86 370.616 210.443C370.213 211.026 370.076 211.581 370.204 212.108C370.324 212.628 370.607 213.118 371.055 213.578C371.509 214.029 372.111 214.513 372.861 215.032C373.638 215.569 374.323 215.974 374.914 216.246C375.506 216.518 376.066 216.618 376.594 216.546C377.13 216.465 377.599 216.133 378.002 215.549C378.405 214.966 378.547 214.415 378.428 213.895C378.315 213.365 378.027 212.872 377.563 212.415C377.1 211.958 376.479 211.46 375.702 210.923ZM381.741 207.411C382.268 207.639 382.757 207.683 383.209 207.544C383.66 207.405 384.066 207.076 384.424 206.558C384.878 205.901 384.952 205.24 384.645 204.577C384.338 203.913 383.559 203.149 382.31 202.285C382.471 202.725 382.499 203.209 382.393 203.738C382.284 204.251 382.067 204.744 381.741 205.216C381.325 205.817 380.827 206.28 380.247 206.604C379.658 206.922 379.024 207.058 378.344 207.012C377.662 206.951 376.973 206.68 376.279 206.2C375.261 205.496 374.656 204.64 374.464 203.632C374.269 202.608 374.533 201.573 375.257 200.527C376.127 199.269 377.165 198.667 378.372 198.722C379.576 198.761 381.044 199.378 382.774 200.575C383.968 201.401 384.874 202.177 385.492 202.906C386.117 203.625 386.454 204.364 386.503 205.123C386.553 205.882 386.277 206.697 385.675 207.567C384.991 208.557 384.204 209.142 383.314 209.32C382.425 209.498 381.565 209.348 380.733 208.869L381.741 207.411ZM380.6 204.017C380.984 203.461 381.113 202.908 380.989 202.357C380.861 201.79 380.51 201.308 379.936 200.911C379.298 200.469 378.684 200.298 378.096 200.398C377.504 200.481 377.007 200.814 376.604 201.397C376.201 201.981 376.066 202.571 376.2 203.17C376.33 203.752 376.692 204.248 377.284 204.658C377.848 205.048 378.428 205.21 379.022 205.142C379.613 205.058 380.139 204.683 380.6 204.017Z" fill="url(#paint12_linear_1_116)"/>
<rect x="354.779" y="212.698" width="32.4465" height="33.025" rx="16.2232" transform="rotate(-55.3393 354.779 212.698)" stroke="url(#paint13_linear_1_116)" stroke-width="1.97567"/>
<g opacity="0.7">
<path d="M79.5795 40.0124L79.1006 43.9904L81.4637 44.2749C81.2621 44.082 81.1056 43.8142 80.9942 43.4715C80.8838 43.1209 80.851 42.7595 80.8958 42.3875C80.9759 41.7225 81.1832 41.2013 81.5177 40.8239C81.8532 40.4387 82.2491 40.1851 82.7055 40.0634C83.1629 39.9337 83.633 39.8979 84.1159 39.9561C84.7017 40.0266 85.2104 40.2043 85.6419 40.4891C86.0665 40.7651 86.3822 41.1445 86.5892 41.6272C86.797 42.1019 86.8619 42.6639 86.7838 43.3131C86.6799 44.176 86.3828 44.8429 85.8924 45.314C85.402 45.785 84.7983 46.0296 84.0813 46.0477L84.24 44.7296C84.6226 44.6873 84.9428 44.5291 85.2007 44.2549C85.4506 43.9798 85.6028 43.6166 85.6571 43.1654C85.7247 42.6033 85.605 42.1632 85.298 41.8452C84.9919 41.5192 84.5578 41.3224 83.9957 41.2547C83.4257 41.1861 82.9731 41.2762 82.638 41.525C82.295 41.7728 82.0901 42.1738 82.0234 42.728C81.9767 43.1159 82.0361 43.4563 82.2016 43.7493C82.3601 44.0334 82.5985 44.2549 82.9167 44.4137L82.7623 45.6962L77.763 45.0944L78.392 39.8694L79.5795 40.0124ZM85.4886 38.8603L84.4674 38.7374L79.224 34.0585L79.4212 32.4197L84.9906 33.0901L85.1235 31.9858L86.2991 32.1273L86.1662 33.2316L87.9712 33.4489L87.8111 34.7789L86.0061 34.5616L85.4886 38.8603ZM80.6458 33.8562L84.5003 37.1632L84.8376 34.3607L80.6458 33.8562Z" fill="white"/>
<path d="M79.5795 40.0124L79.1006 43.9904L81.4637 44.2749C81.2621 44.082 81.1056 43.8142 80.9942 43.4715C80.8838 43.1209 80.851 42.7595 80.8958 42.3875C80.9759 41.7225 81.1832 41.2013 81.5177 40.8239C81.8532 40.4387 82.2491 40.1851 82.7055 40.0634C83.1629 39.9337 83.633 39.8979 84.1159 39.9561C84.7017 40.0266 85.2104 40.2043 85.6419 40.4891C86.0665 40.7651 86.3822 41.1445 86.5892 41.6272C86.797 42.1019 86.8619 42.6639 86.7838 43.3131C86.6799 44.176 86.3828 44.8429 85.8924 45.314C85.402 45.785 84.7983 46.0296 84.0813 46.0477L84.24 44.7296C84.6226 44.6873 84.9428 44.5291 85.2007 44.2549C85.4506 43.9798 85.6028 43.6166 85.6571 43.1654C85.7247 42.6033 85.605 42.1632 85.298 41.8452C84.9919 41.5192 84.5578 41.3224 83.9957 41.2547C83.4257 41.1861 82.9731 41.2762 82.638 41.525C82.295 41.7728 82.0901 42.1738 82.0234 42.728C81.9767 43.1159 82.0361 43.4563 82.2016 43.7493C82.3601 44.0334 82.5985 44.2549 82.9167 44.4137L82.7623 45.6962L77.763 45.0944L78.392 39.8694L79.5795 40.0124ZM85.4886 38.8603L84.4674 38.7374L79.224 34.0585L79.4212 32.4197L84.9906 33.0901L85.1235 31.9858L86.2991 32.1273L86.1662 33.2316L87.9712 33.4489L87.8111 34.7789L86.0061 34.5616L85.4886 38.8603ZM80.6458 33.8562L84.5003 37.1632L84.8376 34.3607L80.6458 33.8562Z" fill="url(#paint14_linear_1_116)"/>
<rect x="70.2704" y="49.1099" width="22.9944" height="23.4044" rx="11.4972" transform="rotate(-83.1361 70.2704 49.1099)" stroke="url(#paint15_linear_1_116)" stroke-width="1.40013"/>
</g>
<path d="M234.819 171.671L235.989 168.189L256.149 153.243L261.736 155.12L255.358 174.11L259.123 175.375L257.777 179.383L254.011 178.118L251.944 184.272L247.409 182.749L249.476 176.595L234.819 171.671ZM255.826 158.362L241.47 169.445L251.025 172.654L255.826 158.362ZM269.696 173.069C267.36 170.722 266.7 168.037 267.716 165.014C268.205 163.556 269.019 162.343 270.155 161.373C271.292 160.403 272.707 159.812 274.401 159.6C276.103 159.36 278.007 159.594 280.112 160.302C282.191 161 283.836 161.958 285.049 163.177C286.298 164.377 287.083 165.707 287.404 167.167C287.725 168.626 287.64 170.085 287.15 171.542C286.643 173.054 285.803 174.259 284.63 175.156C283.493 176.036 282.186 176.573 280.709 176.768C282.057 177.852 282.959 179.191 283.415 180.786C283.879 182.354 283.821 184.001 283.241 185.729C282.652 187.483 281.685 188.886 280.341 189.936C278.997 190.987 277.406 191.609 275.569 191.803C273.731 191.997 271.8 191.754 269.776 191.073C267.751 190.393 266.065 189.422 264.718 188.158C263.397 186.903 262.518 185.451 262.08 183.802C261.643 182.154 261.719 180.452 262.308 178.697C262.898 176.943 263.851 175.581 265.168 174.611C266.485 173.642 267.994 173.128 269.696 173.069ZM282.547 170.627C283.055 169.115 282.972 167.796 282.299 166.669C281.627 165.541 280.467 164.701 278.82 164.148C277.201 163.604 275.783 163.578 274.566 164.071C273.349 164.563 272.482 165.579 271.965 167.117C271.512 168.467 271.626 169.737 272.308 170.927C273.025 172.099 274.154 172.944 275.692 173.461C277.231 173.978 278.645 173.972 279.933 173.444C281.222 172.915 282.093 171.976 282.547 170.627ZM274.523 176.943C272.741 176.344 271.134 176.3 269.701 176.81C268.304 177.302 267.329 178.371 266.776 180.018C266.259 181.556 266.377 182.993 267.131 184.327C267.893 185.635 269.205 186.601 271.068 187.227C272.903 187.844 274.511 187.843 275.89 187.225C277.296 186.616 278.253 185.555 278.761 184.044C279.305 182.424 279.173 180.983 278.366 179.721C277.585 178.467 276.304 177.541 274.523 176.943Z" fill="white"/>
<path d="M234.819 171.671L235.989 168.189L256.149 153.243L261.736 155.12L255.358 174.11L259.123 175.375L257.777 179.383L254.011 178.118L251.944 184.272L247.409 182.749L249.476 176.595L234.819 171.671ZM255.826 158.362L241.47 169.445L251.025 172.654L255.826 158.362ZM269.696 173.069C267.36 170.722 266.7 168.037 267.716 165.014C268.205 163.556 269.019 162.343 270.155 161.373C271.292 160.403 272.707 159.812 274.401 159.6C276.103 159.36 278.007 159.594 280.112 160.302C282.191 161 283.836 161.958 285.049 163.177C286.298 164.377 287.083 165.707 287.404 167.167C287.725 168.626 287.64 170.085 287.15 171.542C286.643 173.054 285.803 174.259 284.63 175.156C283.493 176.036 282.186 176.573 280.709 176.768C282.057 177.852 282.959 179.191 283.415 180.786C283.879 182.354 283.821 184.001 283.241 185.729C282.652 187.483 281.685 188.886 280.341 189.936C278.997 190.987 277.406 191.609 275.569 191.803C273.731 191.997 271.8 191.754 269.776 191.073C267.751 190.393 266.065 189.422 264.718 188.158C263.397 186.903 262.518 185.451 262.08 183.802C261.643 182.154 261.719 180.452 262.308 178.697C262.898 176.943 263.851 175.581 265.168 174.611C266.485 173.642 267.994 173.128 269.696 173.069ZM282.547 170.627C283.055 169.115 282.972 167.796 282.299 166.669C281.627 165.541 280.467 164.701 278.82 164.148C277.201 163.604 275.783 163.578 274.566 164.071C273.349 164.563 272.482 165.579 271.965 167.117C271.512 168.467 271.626 169.737 272.308 170.927C273.025 172.099 274.154 172.944 275.692 173.461C277.231 173.978 278.645 173.972 279.933 173.444C281.222 172.915 282.093 171.976 282.547 170.627ZM274.523 176.943C272.741 176.344 271.134 176.3 269.701 176.81C268.304 177.302 267.329 178.371 266.776 180.018C266.259 181.556 266.377 182.993 267.131 184.327C267.893 185.635 269.205 186.601 271.068 187.227C272.903 187.844 274.511 187.843 275.89 187.225C277.296 186.616 278.253 185.555 278.761 184.044C279.305 182.424 279.173 180.983 278.366 179.721C277.585 178.467 276.304 177.541 274.523 176.943Z" fill="url(#paint16_linear_1_116)"/>
<rect x="221.828" y="89.7607" width="127.757" height="130.005" rx="63.8786" transform="rotate(18.5677 221.828 89.7607)" stroke="white" stroke-opacity="0.2" stroke-width="6"/>
<rect x="221.828" y="89.7607" width="127.757" height="130.005" rx="63.8786" transform="rotate(18.5677 221.828 89.7607)" stroke="url(#paint17_linear_1_116)" stroke-width="6"/>
<g filter="url(#filter0_f_1_116)">
<circle cx="179.5" cy="61.5" r="6.5" fill="white"/>
</g>
<g opacity="0.4" filter="url(#filter1_f_1_116)">
<ellipse cx="253" cy="167.5" rx="16" ry="15.5" fill="white"/>
</g>
<g filter="url(#filter2_f_1_116)">
<circle cx="389" cy="102" r="10" fill="white"/>
</g>
<path d="M431.381 168.507L432.84 167.151L446.313 165.251L448.488 167.591L440.534 174.986L442 176.563L440.321 178.124L438.855 176.547L436.276 178.943L434.511 177.044L437.089 174.647L431.381 168.507ZM444.834 167.605L435.126 169.168L438.847 173.171L444.834 167.605ZM447.634 178.202C447.128 176.479 447.509 175.029 448.775 173.852C449.386 173.285 450.088 172.917 450.88 172.749C451.673 172.582 452.5 172.666 453.362 173.004C454.234 173.33 455.081 173.935 455.901 174.817C456.71 175.687 457.246 176.57 457.508 177.464C457.792 178.36 457.822 179.196 457.597 179.975C457.372 180.753 456.954 181.426 456.343 181.993C455.71 182.582 454.998 182.938 454.207 183.062C453.438 183.187 452.676 183.105 451.922 182.815C452.284 183.68 452.367 184.552 452.171 185.43C451.986 186.297 451.532 187.067 450.808 187.739C450.073 188.423 449.25 188.84 448.338 188.993C447.425 189.145 446.506 189.03 445.581 188.646C444.656 188.263 443.799 187.647 443.01 186.799C442.222 185.951 441.67 185.052 441.356 184.101C441.051 183.161 441.008 182.242 441.227 181.343C441.445 180.445 441.922 179.654 442.657 178.971C443.392 178.287 444.199 177.885 445.077 177.764C445.955 177.644 446.807 177.789 447.634 178.202ZM454.387 180.365C455.021 179.777 455.323 179.127 455.294 178.416C455.265 177.705 454.931 177.004 454.289 176.315C453.659 175.636 452.99 175.257 452.283 175.176C451.576 175.096 450.9 175.355 450.255 175.954C449.69 176.48 449.416 177.114 449.432 177.858C449.47 178.602 449.789 179.296 450.388 179.941C450.987 180.585 451.662 180.949 452.413 181.031C453.164 181.113 453.822 180.891 454.387 180.365ZM448.93 181.297C448.236 180.551 447.482 180.113 446.667 179.985C445.874 179.858 445.133 180.115 444.443 180.756C443.799 181.355 443.483 182.07 443.497 182.901C443.521 183.721 443.896 184.521 444.622 185.302C445.336 186.07 446.102 186.486 446.919 186.549C447.747 186.623 448.477 186.365 449.11 185.777C449.789 185.146 450.099 184.425 450.041 183.615C449.994 182.816 449.623 182.043 448.93 181.297Z" fill="white"/>
<path d="M431.381 168.507L432.84 167.151L446.313 165.251L448.488 167.591L440.534 174.986L442 176.563L440.321 178.124L438.855 176.547L436.276 178.943L434.511 177.044L437.089 174.647L431.381 168.507ZM444.834 167.605L435.126 169.168L438.847 173.171L444.834 167.605ZM447.634 178.202C447.128 176.479 447.509 175.029 448.775 173.852C449.386 173.285 450.088 172.917 450.88 172.749C451.673 172.582 452.5 172.666 453.362 173.004C454.234 173.33 455.081 173.935 455.901 174.817C456.71 175.687 457.246 176.57 457.508 177.464C457.792 178.36 457.822 179.196 457.597 179.975C457.372 180.753 456.954 181.426 456.343 181.993C455.71 182.582 454.998 182.938 454.207 183.062C453.438 183.187 452.676 183.105 451.922 182.815C452.284 183.68 452.367 184.552 452.171 185.43C451.986 186.297 451.532 187.067 450.808 187.739C450.073 188.423 449.25 188.84 448.338 188.993C447.425 189.145 446.506 189.03 445.581 188.646C444.656 188.263 443.799 187.647 443.01 186.799C442.222 185.951 441.67 185.052 441.356 184.101C441.051 183.161 441.008 182.242 441.227 181.343C441.445 180.445 441.922 179.654 442.657 178.971C443.392 178.287 444.199 177.885 445.077 177.764C445.955 177.644 446.807 177.789 447.634 178.202ZM454.387 180.365C455.021 179.777 455.323 179.127 455.294 178.416C455.265 177.705 454.931 177.004 454.289 176.315C453.659 175.636 452.99 175.257 452.283 175.176C451.576 175.096 450.9 175.355 450.255 175.954C449.69 176.48 449.416 177.114 449.432 177.858C449.47 178.602 449.789 179.296 450.388 179.941C450.987 180.585 451.662 180.949 452.413 181.031C453.164 181.113 453.822 180.891 454.387 180.365ZM448.93 181.297C448.236 180.551 447.482 180.113 446.667 179.985C445.874 179.858 445.133 180.115 444.443 180.756C443.799 181.355 443.483 182.07 443.497 182.901C443.521 183.721 443.896 184.521 444.622 185.302C445.336 186.07 446.102 186.486 446.919 186.549C447.747 186.623 448.477 186.365 449.11 185.777C449.789 185.146 450.099 184.425 450.041 183.615C449.994 182.816 449.623 182.043 448.93 181.297Z" fill="url(#paint18_linear_1_116)"/>
<rect x="445.507" y="143.846" width="44.5201" height="45.3139" rx="22.2601" transform="rotate(47.0902 445.507 143.846)" stroke="url(#paint19_linear_1_116)" stroke-width="2.71084"/>
<path d="M365.896 94.5051C368.412 94.1889 370.421 93.895 371.923 93.6233C373.452 93.346 374.846 92.9302 376.104 92.3759C377.362 91.8216 378.312 91.0623 378.955 90.0979C379.62 89.1003 379.9 88.1582 379.794 87.2715C379.706 86.3959 379.154 85.6201 378.14 84.9441C377.159 84.2903 376.183 84.0964 375.214 84.3625C374.272 84.6231 373.435 85.266 372.703 86.2914L369.96 84.4628C371.273 82.6007 372.803 81.5309 374.548 81.2536C376.322 80.9708 378.048 81.389 379.727 82.5083C381.54 83.7162 382.62 85.157 382.97 86.8306C383.336 88.5153 382.965 90.1889 381.856 91.8516C381.058 93.0487 379.981 93.9993 378.623 94.7032C377.293 95.4016 375.91 95.9089 374.475 96.2249C373.068 96.5354 371.333 96.8321 369.271 97.1149L367.484 97.3645L375.39 102.634L373.811 105.003L361.69 96.9245L363.07 94.8545L365.896 94.5051ZM385.219 93.1921C386.349 91.7123 387.743 90.9002 389.4 90.756C391.073 90.6228 392.758 91.1214 394.454 92.2517C395.618 93.0275 396.485 93.9057 397.056 94.8866C397.627 95.8674 397.89 96.8594 397.846 97.8625C397.802 98.8655 397.481 99.816 396.882 100.714C396.195 101.745 395.333 102.443 394.297 102.809C393.261 103.175 392.277 103.228 391.346 102.967L391.28 103.067C392.061 104.02 392.46 105.078 392.477 106.242C392.505 107.389 392.109 108.578 391.289 109.809C390.635 110.79 389.829 111.513 388.87 111.978C387.911 112.444 386.842 112.608 385.661 112.469C384.492 112.314 383.292 111.827 382.062 111.007C380.266 109.81 379.091 108.366 378.537 106.676C378.01 104.98 378.281 103.24 379.351 101.456L382.094 103.284C381.573 104.21 381.432 105.16 381.67 106.135C381.92 107.094 382.568 107.923 383.616 108.621C384.63 109.297 385.594 109.543 386.509 109.36C387.434 109.161 388.191 108.62 388.778 107.739C389.554 106.575 389.728 105.503 389.301 104.522C388.902 103.535 387.938 102.533 386.408 101.513L385.76 101.081L387.322 98.7364L387.996 99.1852C389.354 100.066 390.526 100.523 391.512 100.556C392.515 100.601 393.327 100.157 393.948 99.2262C394.48 98.4281 394.643 97.6245 394.438 96.8154C394.244 95.9897 393.673 95.261 392.725 94.6294C391.794 94.0088 390.91 93.7678 390.073 93.9064C389.248 94.0284 388.552 94.4054 387.987 95.0372L385.219 93.1921Z" fill="white"/>
<path d="M365.896 94.5051C368.412 94.1889 370.421 93.895 371.923 93.6233C373.452 93.346 374.846 92.9302 376.104 92.3759C377.362 91.8216 378.312 91.0623 378.955 90.0979C379.62 89.1003 379.9 88.1582 379.794 87.2715C379.706 86.3959 379.154 85.6201 378.14 84.9441C377.159 84.2903 376.183 84.0964 375.214 84.3625C374.272 84.6231 373.435 85.266 372.703 86.2914L369.96 84.4628C371.273 82.6007 372.803 81.5309 374.548 81.2536C376.322 80.9708 378.048 81.389 379.727 82.5083C381.54 83.7162 382.62 85.157 382.97 86.8306C383.336 88.5153 382.965 90.1889 381.856 91.8516C381.058 93.0487 379.981 93.9993 378.623 94.7032C377.293 95.4016 375.91 95.9089 374.475 96.2249C373.068 96.5354 371.333 96.8321 369.271 97.1149L367.484 97.3645L375.39 102.634L373.811 105.003L361.69 96.9245L363.07 94.8545L365.896 94.5051ZM385.219 93.1921C386.349 91.7123 387.743 90.9002 389.4 90.756C391.073 90.6228 392.758 91.1214 394.454 92.2517C395.618 93.0275 396.485 93.9057 397.056 94.8866C397.627 95.8674 397.89 96.8594 397.846 97.8625C397.802 98.8655 397.481 99.816 396.882 100.714C396.195 101.745 395.333 102.443 394.297 102.809C393.261 103.175 392.277 103.228 391.346 102.967L391.28 103.067C392.061 104.02 392.46 105.078 392.477 106.242C392.505 107.389 392.109 108.578 391.289 109.809C390.635 110.79 389.829 111.513 388.87 111.978C387.911 112.444 386.842 112.608 385.661 112.469C384.492 112.314 383.292 111.827 382.062 111.007C380.266 109.81 379.091 108.366 378.537 106.676C378.01 104.98 378.281 103.24 379.351 101.456L382.094 103.284C381.573 104.21 381.432 105.16 381.67 106.135C381.92 107.094 382.568 107.923 383.616 108.621C384.63 109.297 385.594 109.543 386.509 109.36C387.434 109.161 388.191 108.62 388.778 107.739C389.554 106.575 389.728 105.503 389.301 104.522C388.902 103.535 387.938 102.533 386.408 101.513L385.76 101.081L387.322 98.7364L387.996 99.1852C389.354 100.066 390.526 100.523 391.512 100.556C392.515 100.601 393.327 100.157 393.948 99.2262C394.48 98.4281 394.643 97.6245 394.438 96.8154C394.244 95.9897 393.673 95.261 392.725 94.6294C391.794 94.0088 390.91 93.7678 390.073 93.9064C389.248 94.0284 388.552 94.4054 387.987 95.0372L385.219 93.1921Z" fill="url(#paint20_linear_1_116)"/>
<rect x="372.689" y="57.357" width="57.6215" height="58.6489" rx="28.8107" transform="rotate(33.6839 372.689 57.357)" stroke="url(#paint21_linear_1_116)" stroke-width="3.50858"/>
<g opacity="0.5">
<path d="M484.953 61.6377L483.802 59.5221L488.033 57.2205L496.1 72.0502L493.761 73.3227L486.845 60.6086L484.953 61.6377ZM498.852 66.4671C499.542 64.6333 500.064 63.1541 500.419 62.0296C500.78 60.8842 500.998 59.7817 501.072 58.7222C501.146 57.6627 500.969 56.7396 500.541 55.9531C500.098 55.1394 499.555 54.6089 498.911 54.3617C498.28 54.1072 497.551 54.2049 496.724 54.6549C495.924 55.0901 495.44 55.6872 495.273 56.4459C495.112 57.1838 495.25 57.9873 495.688 58.8564L493.45 60.0736C492.65 58.5054 492.469 57.0747 492.908 55.7815C493.353 54.4674 494.261 53.4378 495.63 52.6927C497.108 51.8887 498.483 51.6685 499.752 52.0322C501.036 52.3885 502.046 53.2448 502.784 54.601C503.315 55.5774 503.577 56.6564 503.569 57.838C503.568 58.9986 503.417 60.1264 503.116 61.2214C502.822 62.2955 502.4 63.5881 501.852 65.0992L501.379 66.4109L507.827 62.9032L508.878 64.8357L498.992 70.2135L498.074 68.525L498.852 66.4671Z" fill="white"/>
<path d="M484.953 61.6377L483.802 59.5221L488.033 57.2205L496.1 72.0502L493.761 73.3227L486.845 60.6086L484.953 61.6377ZM498.852 66.4671C499.542 64.6333 500.064 63.1541 500.419 62.0296C500.78 60.8842 500.998 59.7817 501.072 58.7222C501.146 57.6627 500.969 56.7396 500.541 55.9531C500.098 55.1394 499.555 54.6089 498.911 54.3617C498.28 54.1072 497.551 54.2049 496.724 54.6549C495.924 55.0901 495.44 55.6872 495.273 56.4459C495.112 57.1838 495.25 57.9873 495.688 58.8564L493.45 60.0736C492.65 58.5054 492.469 57.0747 492.908 55.7815C493.353 54.4674 494.261 53.4378 495.63 52.6927C497.108 51.8887 498.483 51.6685 499.752 52.0322C501.036 52.3885 502.046 53.2448 502.784 54.601C503.315 55.5774 503.577 56.6564 503.569 57.838C503.568 58.9986 503.417 60.1264 503.116 61.2214C502.822 62.2955 502.4 63.5881 501.852 65.0992L501.379 66.4109L507.827 62.9032L508.878 64.8357L498.992 70.2135L498.074 68.525L498.852 66.4671Z" fill="url(#paint22_linear_1_116)"/>
<rect x="466.176" y="53.4282" width="44.5201" height="45.3139" rx="22.2601" transform="rotate(-28.5439 466.176 53.4282)" stroke="url(#paint23_linear_1_116)" stroke-width="2.71084"/>
</g>
<g opacity="0.2">
<path d="M559.294 195.084C559.67 194.085 559.955 193.279 560.148 192.666C560.345 192.042 560.463 191.441 560.504 190.864C560.544 190.287 560.447 189.784 560.214 189.355C559.973 188.912 559.677 188.623 559.326 188.488C558.982 188.349 558.585 188.403 558.134 188.648C557.698 188.885 557.435 189.21 557.344 189.624C557.256 190.026 557.331 190.464 557.57 190.937L556.35 191.6C555.914 190.746 555.816 189.966 556.055 189.262C556.298 188.546 556.792 187.985 557.538 187.579C558.344 187.14 559.093 187.02 559.785 187.219C560.484 187.413 561.035 187.879 561.437 188.618C561.726 189.15 561.869 189.738 561.865 190.382C561.864 191.015 561.782 191.629 561.618 192.226C561.457 192.811 561.228 193.516 560.928 194.339L560.671 195.054L564.185 193.142L564.758 194.195L559.37 197.126L558.87 196.206L559.294 195.084ZM565.692 191.604C566.068 190.605 566.352 189.799 566.546 189.186C566.742 188.562 566.861 187.961 566.901 187.384C566.941 186.807 566.845 186.304 566.612 185.875C566.371 185.432 566.075 185.143 565.724 185.008C565.38 184.869 564.983 184.923 564.532 185.168C564.096 185.405 563.832 185.73 563.741 186.144C563.654 186.546 563.729 186.984 563.967 187.457L562.748 188.12C562.312 187.266 562.214 186.486 562.453 185.782C562.695 185.066 563.19 184.505 563.936 184.099C564.742 183.66 565.49 183.54 566.182 183.739C566.882 183.933 567.432 184.399 567.834 185.138C568.124 185.67 568.266 186.258 568.262 186.902C568.262 187.535 568.179 188.149 568.015 188.746C567.855 189.331 567.625 190.036 567.326 190.859L567.069 191.574L570.582 189.662L571.155 190.715L565.768 193.646L565.268 192.726L565.692 191.604Z" fill="white"/>
<path d="M559.294 195.084C559.67 194.085 559.955 193.279 560.148 192.666C560.345 192.042 560.463 191.441 560.504 190.864C560.544 190.287 560.447 189.784 560.214 189.355C559.973 188.912 559.677 188.623 559.326 188.488C558.982 188.349 558.585 188.403 558.134 188.648C557.698 188.885 557.435 189.21 557.344 189.624C557.256 190.026 557.331 190.464 557.57 190.937L556.35 191.6C555.914 190.746 555.816 189.966 556.055 189.262C556.298 188.546 556.792 187.985 557.538 187.579C558.344 187.14 559.093 187.02 559.785 187.219C560.484 187.413 561.035 187.879 561.437 188.618C561.726 189.15 561.869 189.738 561.865 190.382C561.864 191.015 561.782 191.629 561.618 192.226C561.457 192.811 561.228 193.516 560.928 194.339L560.671 195.054L564.185 193.142L564.758 194.195L559.37 197.126L558.87 196.206L559.294 195.084ZM565.692 191.604C566.068 190.605 566.352 189.799 566.546 189.186C566.742 188.562 566.861 187.961 566.901 187.384C566.941 186.807 566.845 186.304 566.612 185.875C566.371 185.432 566.075 185.143 565.724 185.008C565.38 184.869 564.983 184.923 564.532 185.168C564.096 185.405 563.832 185.73 563.741 186.144C563.654 186.546 563.729 186.984 563.967 187.457L562.748 188.12C562.312 187.266 562.214 186.486 562.453 185.782C562.695 185.066 563.19 184.505 563.936 184.099C564.742 183.66 565.49 183.54 566.182 183.739C566.882 183.933 567.432 184.399 567.834 185.138C568.124 185.67 568.266 186.258 568.262 186.902C568.262 187.535 568.179 188.149 568.015 188.746C567.855 189.331 567.625 190.036 567.326 190.859L567.069 191.574L570.582 189.662L571.155 190.715L565.768 193.646L565.268 192.726L565.692 191.604Z" fill="url(#paint24_linear_1_116)"/>
<rect x="546.797" y="185.501" width="24.2597" height="24.6923" rx="12.1299" transform="rotate(-28.5439 546.797 185.501)" stroke="url(#paint25_linear_1_116)" stroke-width="1.47718"/>
</g>
<defs>
<filter id="filter0_f_1_116" x="151.378" y="33.3784" width="56.2432" height="56.2432" filterUnits="userSpaceOnUse" color-interpolation-filters="sRGB">
<feFlood flood-opacity="0" result="BackgroundImageFix"/>
<feBlend mode="normal" in="SourceGraphic" in2="BackgroundImageFix" result="shape"/>
<feGaussianBlur stdDeviation="10.8108" result="effect1_foregroundBlur_1_116"/>
</filter>
<filter id="filter1_f_1_116" x="189" y="104" width="128" height="127" filterUnits="userSpaceOnUse" color-interpolation-filters="sRGB">
<feFlood flood-opacity="0" result="BackgroundImageFix"/>
<feBlend mode="normal" in="SourceGraphic" in2="BackgroundImageFix" result="shape"/>
<feGaussianBlur stdDeviation="24" result="effect1_foregroundBlur_1_116"/>
</filter>
<filter id="filter2_f_1_116" x="339" y="52" width="100" height="100" filterUnits="userSpaceOnUse" color-interpolation-filters="sRGB">
<feFlood flood-opacity="0" result="BackgroundImageFix"/>
<feBlend mode="normal" in="SourceGraphic" in2="BackgroundImageFix" result="shape"/>
<feGaussianBlur stdDeviation="20" result="effect1_foregroundBlur_1_116"/>
</filter>
<linearGradient id="paint0_linear_1_116" x1="443.866" y1="243.467" x2="460.005" y2="256.749" gradientUnits="userSpaceOnUse">
<stop stop-color="#FCA43D"/>
<stop offset="0.130208" stop-color="#FFB053"/>
<stop offset="0.21875" stop-color="#F39930"/>
<stop offset="0.473958" stop-color="#FDC584"/>
<stop offset="0.59375" stop-color="#FFCF97"/>
<stop offset="0.760417" stop-color="#FFB156"/>
<stop offset="0.942708" stop-color="#FFD6A6"/>
<stop offset="1" stop-color="#FFF4E8"/>
</linearGradient>
<linearGradient id="paint1_linear_1_116" x1="444.483" y1="241.245" x2="462.915" y2="259.258" gradientUnits="userSpaceOnUse">
<stop stop-color="#FCA43D"/>
<stop offset="0.130208" stop-color="#FFB053"/>
<stop offset="0.21875" stop-color="#F39930"/>
<stop offset="0.473958" stop-color="#FDC584"/>
<stop offset="0.59375" stop-color="#FFCF97"/>
<stop offset="0.760417" stop-color="#FFB156"/>
<stop offset="0.942708" stop-color="#FFD6A6"/>
<stop offset="1" stop-color="#FFF4E8"/>
</linearGradient>
<linearGradient id="paint2_linear_1_116" x1="98.0238" y1="201.887" x2="93.2553" y2="228.861" gradientUnits="userSpaceOnUse">
<stop stop-color="#FCA43D"/>
<stop offset="0.130208" stop-color="#FFB053"/>
<stop offset="0.21875" stop-color="#F39930"/>
<stop offset="0.473958" stop-color="#FDC584"/>
<stop offset="0.59375" stop-color="#FFCF97"/>
<stop offset="0.760417" stop-color="#FFB156"/>
<stop offset="0.942708" stop-color="#FFD6A6"/>
<stop offset="1" stop-color="#FFF4E8"/>
</linearGradient>
<linearGradient id="paint3_linear_1_116" x1="110.423" y1="201.197" x2="134.355" y2="224.584" gradientUnits="userSpaceOnUse">
<stop stop-color="#FCA43D"/>
<stop offset="0.130208" stop-color="#FFB053"/>
<stop offset="0.21875" stop-color="#F39930"/>
<stop offset="0.473958" stop-color="#FDC584"/>
<stop offset="0.59375" stop-color="#FFCF97"/>
<stop offset="0.760417" stop-color="#FFB156"/>
<stop offset="0.942708" stop-color="#FFD6A6"/>
<stop offset="1" stop-color="#FFF4E8"/>
</linearGradient>
<linearGradient id="paint4_linear_1_116" x1="6.20534" y1="228.249" x2="28.6275" y2="243.984" gradientUnits="userSpaceOnUse">
<stop stop-color="#FCA43D"/>
<stop offset="0.130208" stop-color="#FFB053"/>
<stop offset="0.21875" stop-color="#F39930"/>
<stop offset="0.473958" stop-color="#FDC584"/>
<stop offset="0.59375" stop-color="#FFCF97"/>
<stop offset="0.760417" stop-color="#FFB156"/>
<stop offset="0.942708" stop-color="#FFD6A6"/>
<stop offset="1" stop-color="#FFF4E8"/>
</linearGradient>
<linearGradient id="paint5_linear_1_116" x1="6.2491" y1="225.735" x2="30.1807" y2="249.122" gradientUnits="userSpaceOnUse">
<stop stop-color="#FCA43D"/>
<stop offset="0.130208" stop-color="#FFB053"/>
<stop offset="0.21875" stop-color="#F39930"/>
<stop offset="0.473958" stop-color="#FDC584"/>
<stop offset="0.59375" stop-color="#FFCF97"/>
<stop offset="0.760417" stop-color="#FFB156"/>
<stop offset="0.942708" stop-color="#FFD6A6"/>
<stop offset="1" stop-color="#FFF4E8"/>
</linearGradient>
<linearGradient id="paint6_linear_1_116" x1="27.5716" y1="137.949" x2="63.8073" y2="148.599" gradientUnits="userSpaceOnUse">
<stop stop-color="#FCA43D"/>
<stop offset="0.130208" stop-color="#FFB053"/>
<stop offset="0.21875" stop-color="#F39930"/>
<stop offset="0.473958" stop-color="#FDC584"/>
<stop offset="0.59375" stop-color="#FFCF97"/>
<stop offset="0.760417" stop-color="#FFB156"/>
<stop offset="0.942708" stop-color="#FFD6A6"/>
<stop offset="1" stop-color="#FFF4E8"/>
</linearGradient>
<linearGradient id="paint7_linear_1_116" x1="23.4352" y1="137.363" x2="56.1306" y2="169.315" gradientUnits="userSpaceOnUse">
<stop stop-color="#FCA43D"/>
<stop offset="0.130208" stop-color="#FFB053"/>
<stop offset="0.21875" stop-color="#F39930"/>
<stop offset="0.473958" stop-color="#FDC584"/>
<stop offset="0.59375" stop-color="#FFCF97"/>
<stop offset="0.760417" stop-color="#FFB156"/>
<stop offset="0.942708" stop-color="#FFD6A6"/>
<stop offset="1" stop-color="#FFF4E8"/>
</linearGradient>
<linearGradient id="paint8_linear_1_116" x1="121.052" y1="67.9041" x2="164.051" y2="116.927" gradientUnits="userSpaceOnUse">
<stop stop-color="#FCA43D"/>
<stop offset="0.130208" stop-color="#FFB053"/>
<stop offset="0.21875" stop-color="#F39930"/>
<stop offset="0.473958" stop-color="#FDC584"/>
<stop offset="0.59375" stop-color="#FFCF97"/>
<stop offset="0.760417" stop-color="#FFB156"/>
<stop offset="0.942708" stop-color="#FFD6A6"/>
<stop offset="1" stop-color="#FFF4E8"/>
</linearGradient>
<linearGradient id="paint9_linear_1_116" x1="127.466" y1="59.981" x2="184.385" y2="115.605" gradientUnits="userSpaceOnUse">
<stop stop-color="#FCA43D"/>
<stop offset="0.130208" stop-color="#FFB053"/>
<stop offset="0.21875" stop-color="#F39930"/>
<stop offset="0.473958" stop-color="#FDC584"/>
<stop offset="0.59375" stop-color="#FFCF97"/>
<stop offset="0.760417" stop-color="#FFB156"/>
<stop offset="0.942708" stop-color="#FFD6A6"/>
<stop offset="1" stop-color="#FFF4E8"/>
</linearGradient>
<linearGradient id="paint10_linear_1_116" x1="295.77" y1="41.1594" x2="303.821" y2="13.6887" gradientUnits="userSpaceOnUse">
<stop stop-color="#FCA43D"/>
<stop offset="0.130208" stop-color="#FFB053"/>
<stop offset="0.21875" stop-color="#F39930"/>
<stop offset="0.473958" stop-color="#FDC584"/>
<stop offset="0.59375" stop-color="#FFCF97"/>
<stop offset="0.760417" stop-color="#FFB156"/>
<stop offset="0.942708" stop-color="#FFD6A6"/>
<stop offset="1" stop-color="#FFF4E8"/>
</linearGradient>
<linearGradient id="paint11_linear_1_116" x1="291.928" y1="57.516" x2="316.58" y2="81.6066" gradientUnits="userSpaceOnUse">
<stop stop-color="#FCA43D"/>
<stop offset="0.130208" stop-color="#FFB053"/>
<stop offset="0.21875" stop-color="#F39930"/>
<stop offset="0.473958" stop-color="#FDC584"/>
<stop offset="0.59375" stop-color="#FFCF97"/>
<stop offset="0.760417" stop-color="#FFB156"/>
<stop offset="0.942708" stop-color="#FFD6A6"/>
<stop offset="1" stop-color="#FFF4E8"/>
</linearGradient>
<linearGradient id="paint12_linear_1_116" x1="362.042" y1="221.108" x2="390.032" y2="227.109" gradientUnits="userSpaceOnUse">
<stop stop-color="#FCA43D"/>
<stop offset="0.130208" stop-color="#FFB053"/>
<stop offset="0.21875" stop-color="#F39930"/>
<stop offset="0.473958" stop-color="#FDC584"/>
<stop offset="0.59375" stop-color="#FFCF97"/>
<stop offset="0.760417" stop-color="#FFB156"/>
<stop offset="0.942708" stop-color="#FFD6A6"/>
<stop offset="1" stop-color="#FFF4E8"/>
</linearGradient>
<linearGradient id="paint13_linear_1_116" x1="358.338" y1="221.293" x2="382.989" y2="245.383" gradientUnits="userSpaceOnUse">
<stop stop-color="#FCA43D"/>
<stop offset="0.130208" stop-color="#FFB053"/>
<stop offset="0.21875" stop-color="#F39930"/>
<stop offset="0.473958" stop-color="#FDC584"/>
<stop offset="0.59375" stop-color="#FFCF97"/>
<stop offset="0.760417" stop-color="#FFB156"/>
<stop offset="0.942708" stop-color="#FFD6A6"/>
<stop offset="1" stop-color="#FFF4E8"/>
</linearGradient>
<linearGradient id="paint14_linear_1_116" x1="77.4973" y1="51.9691" x2="97.4094" y2="46.1747" gradientUnits="userSpaceOnUse">
<stop stop-color="#FCA43D"/>
<stop offset="0.130208" stop-color="#FFB053"/>
<stop offset="0.21875" stop-color="#F39930"/>
<stop offset="0.473958" stop-color="#FDC584"/>
<stop offset="0.59375" stop-color="#FFCF97"/>
<stop offset="0.760417" stop-color="#FFB156"/>
<stop offset="0.942708" stop-color="#FFD6A6"/>
<stop offset="1" stop-color="#FFF4E8"/>
</linearGradient>
<linearGradient id="paint15_linear_1_116" x1="72.9877" y1="55.6349" x2="90.4578" y2="72.7076" gradientUnits="userSpaceOnUse">
<stop stop-color="#FCA43D"/>
<stop offset="0.130208" stop-color="#FFB053"/>
<stop offset="0.21875" stop-color="#F39930"/>
<stop offset="0.473958" stop-color="#FDC584"/>
<stop offset="0.59375" stop-color="#FFCF97"/>
<stop offset="0.760417" stop-color="#FFB156"/>
<stop offset="0.942708" stop-color="#FFD6A6"/>
<stop offset="1" stop-color="#FFF4E8"/>
</linearGradient>
<linearGradient id="paint16_linear_1_116" x1="220.575" y1="143.01" x2="224.732" y2="213.461" gradientUnits="userSpaceOnUse">
<stop stop-color="#FCA43D"/>
<stop offset="0.130208" stop-color="#FFB053"/>
<stop offset="0.21875" stop-color="#F39930"/>
<stop offset="0.473958" stop-color="#FDC584"/>
<stop offset="0.59375" stop-color="#FFCF97"/>
<stop offset="0.760417" stop-color="#FFB156"/>
<stop offset="0.942708" stop-color="#FFD6A6"/>
<stop offset="1" stop-color="#FFF4E8"/>
</linearGradient>
<linearGradient id="paint17_linear_1_116" x1="239.109" y1="118.387" x2="334.898" y2="211.998" gradientUnits="userSpaceOnUse">
<stop stop-color="#FCA43D"/>
<stop offset="0.130208" stop-color="#FFB053"/>
<stop offset="0.21875" stop-color="#F39930"/>
<stop offset="0.473958" stop-color="#FDC584"/>
<stop offset="0.59375" stop-color="#FFCF97"/>
<stop offset="0.760417" stop-color="#FFB156"/>
<stop offset="0.942708" stop-color="#FFD6A6"/>
<stop offset="1" stop-color="#FFF4E8"/>
</linearGradient>
<linearGradient id="paint18_linear_1_116" x1="432.057" y1="151.128" x2="415.757" y2="186.636" gradientUnits="userSpaceOnUse">
<stop stop-color="#FCA43D"/>
<stop offset="0.130208" stop-color="#FFB053"/>
<stop offset="0.21875" stop-color="#F39930"/>
<stop offset="0.473958" stop-color="#FDC584"/>
<stop offset="0.59375" stop-color="#FFCF97"/>
<stop offset="0.760417" stop-color="#FFB156"/>
<stop offset="0.942708" stop-color="#FFD6A6"/>
<stop offset="1" stop-color="#FFF4E8"/>
</linearGradient>
<linearGradient id="paint19_linear_1_116" x1="452.346" y1="153.38" x2="486.17" y2="186.435" gradientUnits="userSpaceOnUse">
<stop stop-color="#FCA43D"/>
<stop offset="0.130208" stop-color="#FFB053"/>
<stop offset="0.21875" stop-color="#F39930"/>
<stop offset="0.473958" stop-color="#FDC584"/>
<stop offset="0.59375" stop-color="#FFCF97"/>
<stop offset="0.760417" stop-color="#FFB156"/>
<stop offset="0.942708" stop-color="#FFD6A6"/>
<stop offset="1" stop-color="#FFF4E8"/>
</linearGradient>
<linearGradient id="paint20_linear_1_116" x1="357.82" y1="70.7417" x2="347.768" y2="119.356" gradientUnits="userSpaceOnUse">
<stop stop-color="#FCA43D"/>
<stop offset="0.130208" stop-color="#FFB053"/>
<stop offset="0.21875" stop-color="#F39930"/>
<stop offset="0.473958" stop-color="#FDC584"/>
<stop offset="0.59375" stop-color="#FFCF97"/>
<stop offset="0.760417" stop-color="#FFB156"/>
<stop offset="0.942708" stop-color="#FFD6A6"/>
<stop offset="1" stop-color="#FFF4E8"/>
</linearGradient>
<linearGradient id="paint21_linear_1_116" x1="380.963" y1="69.7432" x2="424.741" y2="112.525" gradientUnits="userSpaceOnUse">
<stop stop-color="#FCA43D"/>
<stop offset="0.130208" stop-color="#FFB053"/>
<stop offset="0.21875" stop-color="#F39930"/>
<stop offset="0.473958" stop-color="#FDC584"/>
<stop offset="0.59375" stop-color="#FFCF97"/>
<stop offset="0.760417" stop-color="#FFB156"/>
<stop offset="0.942708" stop-color="#FFD6A6"/>
<stop offset="1" stop-color="#FFF4E8"/>
</linearGradient>
<linearGradient id="paint22_linear_1_116" x1="469.894" y1="68.2647" x2="500.248" y2="92.865" gradientUnits="userSpaceOnUse">
<stop stop-color="#FCA43D"/>
<stop offset="0.130208" stop-color="#FFB053"/>
<stop offset="0.21875" stop-color="#F39930"/>
<stop offset="0.473958" stop-color="#FDC584"/>
<stop offset="0.59375" stop-color="#FFCF97"/>
<stop offset="0.760417" stop-color="#FFB156"/>
<stop offset="0.942708" stop-color="#FFD6A6"/>
<stop offset="1" stop-color="#FFF4E8"/>
</linearGradient>
<linearGradient id="paint23_linear_1_116" x1="471.107" y1="64.3348" x2="504.931" y2="97.3897" gradientUnits="userSpaceOnUse">
<stop stop-color="#FCA43D"/>
<stop offset="0.130208" stop-color="#FFB053"/>
<stop offset="0.21875" stop-color="#F39930"/>
<stop offset="0.473958" stop-color="#FDC584"/>
<stop offset="0.59375" stop-color="#FFCF97"/>
<stop offset="0.760417" stop-color="#FFB156"/>
<stop offset="0.942708" stop-color="#FFD6A6"/>
<stop offset="1" stop-color="#FFF4E8"/>
</linearGradient>
<linearGradient id="paint24_linear_1_116" x1="548.866" y1="193.665" x2="565.005" y2="206.948" gradientUnits="userSpaceOnUse">
<stop stop-color="#FCA43D"/>
<stop offset="0.130208" stop-color="#FFB053"/>
<stop offset="0.21875" stop-color="#F39930"/>
<stop offset="0.473958" stop-color="#FDC584"/>
<stop offset="0.59375" stop-color="#FFCF97"/>
<stop offset="0.760417" stop-color="#FFB156"/>
<stop offset="0.942708" stop-color="#FFD6A6"/>
<stop offset="1" stop-color="#FFF4E8"/>
</linearGradient>
<linearGradient id="paint25_linear_1_116" x1="549.483" y1="191.444" x2="567.915" y2="209.456" gradientUnits="userSpaceOnUse">
<stop stop-color="#FCA43D"/>
<stop offset="0.130208" stop-color="#FFB053"/>
<stop offset="0.21875" stop-color="#F39930"/>
<stop offset="0.473958" stop-color="#FDC584"/>
<stop offset="0.59375" stop-color="#FFCF97"/>
<stop offset="0.760417" stop-color="#FFB156"/>
<stop offset="0.942708" stop-color="#FFD6A6"/>
<stop offset="1" stop-color="#FFF4E8"/>
</linearGradient>
</defs>
</svg>
